%TF.GenerationSoftware,KiCad,Pcbnew,8.0.6*%
%TF.CreationDate,2025-04-02T20:39:07+07:00*%
%TF.ProjectId,Zellia80,5a656c6c-6961-4383-902e-6b696361645f,rev?*%
%TF.SameCoordinates,Original*%
%TF.FileFunction,Soldermask,Bot*%
%TF.FilePolarity,Negative*%
%FSLAX46Y46*%
G04 Gerber Fmt 4.6, Leading zero omitted, Abs format (unit mm)*
G04 Created by KiCad (PCBNEW 8.0.6) date 2025-04-02 20:39:07*
%MOMM*%
%LPD*%
G01*
G04 APERTURE LIST*
G04 Aperture macros list*
%AMRoundRect*
0 Rectangle with rounded corners*
0 $1 Rounding radius*
0 $2 $3 $4 $5 $6 $7 $8 $9 X,Y pos of 4 corners*
0 Add a 4 corners polygon primitive as box body*
4,1,4,$2,$3,$4,$5,$6,$7,$8,$9,$2,$3,0*
0 Add four circle primitives for the rounded corners*
1,1,$1+$1,$2,$3*
1,1,$1+$1,$4,$5*
1,1,$1+$1,$6,$7*
1,1,$1+$1,$8,$9*
0 Add four rect primitives between the rounded corners*
20,1,$1+$1,$2,$3,$4,$5,0*
20,1,$1+$1,$4,$5,$6,$7,0*
20,1,$1+$1,$6,$7,$8,$9,0*
20,1,$1+$1,$8,$9,$2,$3,0*%
%AMRotRect*
0 Rectangle, with rotation*
0 The origin of the aperture is its center*
0 $1 length*
0 $2 width*
0 $3 Rotation angle, in degrees counterclockwise*
0 Add horizontal line*
21,1,$1,$2,0,0,$3*%
%AMFreePoly0*
4,1,21,-0.125000,1.200000,0.125000,1.200000,0.125000,1.700000,0.375000,1.700000,0.375000,1.200000,0.825000,1.200000,0.825000,-1.200000,0.375000,-1.200000,0.375000,-1.700000,0.125000,-1.700000,0.125000,-1.200000,-0.125000,-1.200000,-0.125000,-1.700000,-0.375000,-1.700000,-0.375000,-1.200000,-0.825000,-1.200000,-0.825000,1.200000,-0.375000,1.200000,-0.375000,1.700000,-0.125000,1.700000,
-0.125000,1.200000,-0.125000,1.200000,$1*%
G04 Aperture macros list end*
%ADD10RoundRect,0.082000X0.718000X-0.328000X0.718000X0.328000X-0.718000X0.328000X-0.718000X-0.328000X0*%
%ADD11RoundRect,0.082000X-0.718000X0.328000X-0.718000X-0.328000X0.718000X-0.328000X0.718000X0.328000X0*%
%ADD12C,0.800000*%
%ADD13C,5.000000*%
%ADD14O,1.700000X1.700000*%
%ADD15R,1.700000X1.700000*%
%ADD16R,0.620000X0.560000*%
%ADD17R,0.560000X0.620000*%
%ADD18RoundRect,0.150000X-0.150000X0.350000X-0.150000X-0.350000X0.150000X-0.350000X0.150000X0.350000X0*%
%ADD19C,1.750000*%
%ADD20R,0.750000X0.800000*%
%ADD21RotRect,0.560000X0.620000X135.000000*%
%ADD22R,0.600000X1.550000*%
%ADD23R,1.200000X1.800000*%
%ADD24RoundRect,0.075000X0.662500X-0.075000X0.662500X0.075000X-0.662500X0.075000X-0.662500X-0.075000X0*%
%ADD25RoundRect,0.075000X0.075000X-0.662500X0.075000X0.662500X-0.075000X0.662500X-0.075000X-0.662500X0*%
%ADD26RotRect,0.560000X0.620000X225.000000*%
%ADD27RoundRect,0.100000X-0.637500X-0.100000X0.637500X-0.100000X0.637500X0.100000X-0.637500X0.100000X0*%
%ADD28C,3.048000*%
%ADD29C,3.987800*%
%ADD30RoundRect,0.135000X0.135000X0.185000X-0.135000X0.185000X-0.135000X-0.185000X0.135000X-0.185000X0*%
%ADD31FreePoly0,90.000000*%
%ADD32RoundRect,0.060000X0.060000X-0.240000X0.060000X0.240000X-0.060000X0.240000X-0.060000X-0.240000X0*%
%ADD33RoundRect,0.135000X0.185000X-0.135000X0.185000X0.135000X-0.185000X0.135000X-0.185000X-0.135000X0*%
%ADD34RotRect,0.560000X0.620000X315.000000*%
%ADD35RoundRect,0.200000X0.200000X0.800000X-0.200000X0.800000X-0.200000X-0.800000X0.200000X-0.800000X0*%
%ADD36RoundRect,0.150000X-0.650000X-0.150000X0.650000X-0.150000X0.650000X0.150000X-0.650000X0.150000X0*%
%ADD37R,1.000000X1.500000*%
%ADD38R,0.400000X1.900000*%
%ADD39RoundRect,0.140000X-0.140000X-0.170000X0.140000X-0.170000X0.140000X0.170000X-0.140000X0.170000X0*%
G04 APERTURE END LIST*
D10*
%TO.C,RGBF5*%
X78800000Y-29642500D03*
X78800000Y-28142500D03*
X73600000Y-28142500D03*
X73600000Y-29642500D03*
%TD*%
%TO.C,RGBF13*%
X231200000Y-29642500D03*
X231200000Y-28142500D03*
X226000000Y-28142500D03*
X226000000Y-29642500D03*
%TD*%
D11*
%TO.C,RGB16*%
X-2600000Y-4329999D03*
X-2600000Y-5829999D03*
X2600000Y-5829999D03*
X2600000Y-4329999D03*
%TD*%
%TO.C,RGB34*%
X326012500Y-47192499D03*
X326012500Y-48692499D03*
X331212500Y-48692499D03*
X331212500Y-47192499D03*
%TD*%
D10*
%TO.C,RGBF7*%
X116900000Y-29642500D03*
X116900000Y-28142500D03*
X111700000Y-28142500D03*
X111700000Y-29642500D03*
%TD*%
%TO.C,RGBF24*%
X131187500Y-67742500D03*
X131187500Y-66242500D03*
X125987500Y-66242500D03*
X125987500Y-67742500D03*
%TD*%
D11*
%TO.C,RGB48*%
X9306250Y-85292499D03*
X9306250Y-86792499D03*
X14506250Y-86792499D03*
X14506250Y-85292499D03*
%TD*%
%TO.C,RGB21*%
X102175000Y-47192499D03*
X102175000Y-48692499D03*
X107375000Y-48692499D03*
X107375000Y-47192499D03*
%TD*%
%TO.C,RGB28*%
X197425000Y-47192499D03*
X197425000Y-48692499D03*
X202625000Y-48692499D03*
X202625000Y-47192499D03*
%TD*%
%TO.C,RGB42*%
X135512500Y-85292499D03*
X135512500Y-86792499D03*
X140712500Y-86792499D03*
X140712500Y-85292499D03*
%TD*%
%TO.C,RGB31*%
X259337500Y-47192499D03*
X259337500Y-48692499D03*
X264537500Y-48692499D03*
X264537500Y-47192499D03*
%TD*%
D10*
%TO.C,RGBF33*%
X331212500Y-105842500D03*
X331212500Y-104342500D03*
X326012500Y-104342500D03*
X326012500Y-105842500D03*
%TD*%
%TO.C,RGBF34*%
X216912500Y-105842500D03*
X216912500Y-104342500D03*
X211712500Y-104342500D03*
X211712500Y-105842500D03*
%TD*%
D11*
%TO.C,RGB37*%
X247431250Y-85292499D03*
X247431250Y-86792499D03*
X252631250Y-86792499D03*
X252631250Y-85292499D03*
%TD*%
D12*
%TO.C,H16*%
X275718750Y-71437500D03*
X275169575Y-72763325D03*
X275169575Y-70111675D03*
X273843750Y-73312500D03*
D13*
X273843750Y-71437500D03*
D12*
X273843750Y-69562500D03*
X272517925Y-72763325D03*
X272517925Y-70111675D03*
X271968750Y-71437500D03*
%TD*%
%TO.C,H13*%
X320962122Y-11000010D03*
X320412947Y-12325835D03*
X320412947Y-9674185D03*
X319087122Y-12875010D03*
D13*
X319087122Y-11000010D03*
D12*
X319087122Y-9125010D03*
X317761297Y-12325835D03*
X317761297Y-9674185D03*
X317212122Y-11000010D03*
%TD*%
%TO.C,H14*%
X17352747Y-100012510D03*
X16803572Y-101338335D03*
X16803572Y-98686685D03*
X15477747Y-101887510D03*
D13*
X15477747Y-100012510D03*
D12*
X15477747Y-98137510D03*
X14151922Y-101338335D03*
X14151922Y-98686685D03*
X13602747Y-100012510D03*
%TD*%
D10*
%TO.C,RGBF32*%
X312162500Y-105842500D03*
X312162500Y-104342500D03*
X306962500Y-104342500D03*
X306962500Y-105842500D03*
%TD*%
D11*
%TO.C,RGB15*%
X102175000Y-4329999D03*
X102175000Y-5829999D03*
X107375000Y-5829999D03*
X107375000Y-4329999D03*
%TD*%
D10*
%TO.C,RGBF26*%
X169287500Y-67742500D03*
X169287500Y-66242500D03*
X164087500Y-66242500D03*
X164087500Y-67742500D03*
%TD*%
D12*
%TO.C,H11*%
X194756250Y-33337500D03*
X194207075Y-34663325D03*
X194207075Y-32011675D03*
X192881250Y-35212500D03*
D13*
X192881250Y-33337500D03*
D12*
X192881250Y-31462500D03*
X191555425Y-34663325D03*
X191555425Y-32011675D03*
X191006250Y-33337500D03*
%TD*%
D11*
%TO.C,RGB23*%
X140275000Y-47192499D03*
X140275000Y-48692499D03*
X145475000Y-48692499D03*
X145475000Y-47192499D03*
%TD*%
%TO.C,RGB47*%
X40262500Y-85292499D03*
X40262500Y-86792499D03*
X45462500Y-86792499D03*
X45462500Y-85292499D03*
%TD*%
D10*
%TO.C,RGBF4*%
X59750000Y-29642500D03*
X59750000Y-28142500D03*
X54550000Y-28142500D03*
X54550000Y-29642500D03*
%TD*%
D11*
%TO.C,RGB36*%
X25975000Y-47192499D03*
X25975000Y-48692499D03*
X31175000Y-48692499D03*
X31175000Y-47192499D03*
%TD*%
D12*
%TO.C,H5*%
X175487244Y-11000010D03*
X174938069Y-12325835D03*
X174938069Y-9674185D03*
X173612244Y-12875010D03*
D13*
X173612244Y-11000010D03*
D12*
X173612244Y-9125010D03*
X172286419Y-12325835D03*
X172286419Y-9674185D03*
X171737244Y-11000010D03*
%TD*%
D11*
%TO.C,RGB14*%
X78362500Y-4329999D03*
X78362500Y-5829999D03*
X83562500Y-5829999D03*
X83562500Y-4329999D03*
%TD*%
D14*
%TO.C,J3*%
X282373078Y-75409402D03*
X279833078Y-75409402D03*
X277293078Y-75409402D03*
D15*
X274753078Y-75409402D03*
%TD*%
D10*
%TO.C,RGBF11*%
X193100000Y-29642500D03*
X193100000Y-28142500D03*
X187900000Y-28142500D03*
X187900000Y-29642500D03*
%TD*%
%TO.C,RGBF23*%
X112137500Y-67742500D03*
X112137500Y-66242500D03*
X106937500Y-66242500D03*
X106937500Y-67742500D03*
%TD*%
%TO.C,RGBF39*%
X54987500Y-105842500D03*
X54987500Y-104342500D03*
X49787500Y-104342500D03*
X49787500Y-105842500D03*
%TD*%
%TO.C,RGBF27*%
X188337500Y-67742500D03*
X188337500Y-66242500D03*
X183137500Y-66242500D03*
X183137500Y-67742500D03*
%TD*%
%TO.C,RGBF2*%
X21650000Y-29642500D03*
X21650000Y-28142500D03*
X16450000Y-28142500D03*
X16450000Y-29642500D03*
%TD*%
D11*
%TO.C,RGB40*%
X173612500Y-85292499D03*
X173612500Y-86792499D03*
X178812500Y-86792499D03*
X178812500Y-85292499D03*
%TD*%
%TO.C,RGB41*%
X154562500Y-85292499D03*
X154562500Y-86792499D03*
X159762500Y-86792499D03*
X159762500Y-85292499D03*
%TD*%
D10*
%TO.C,RGBF38*%
X31175000Y-105842500D03*
X31175000Y-104342500D03*
X25975000Y-104342500D03*
X25975000Y-105842500D03*
%TD*%
D11*
%TO.C,RGB29*%
X216475000Y-47192499D03*
X216475000Y-48692499D03*
X221675000Y-48692499D03*
X221675000Y-47192499D03*
%TD*%
D10*
%TO.C,RGBF12*%
X212150000Y-29642500D03*
X212150000Y-28142500D03*
X206950000Y-28142500D03*
X206950000Y-29642500D03*
%TD*%
D11*
%TO.C,RGB24*%
X159325000Y-47192499D03*
X159325000Y-48692499D03*
X164525000Y-48692499D03*
X164525000Y-47192499D03*
%TD*%
%TO.C,RGB39*%
X192662500Y-85292499D03*
X192662500Y-86792499D03*
X197862500Y-86792499D03*
X197862500Y-85292499D03*
%TD*%
D12*
%TO.C,H4*%
X-3362878Y-51387510D03*
X-3912053Y-52713335D03*
X-3912053Y-50061685D03*
X-5237878Y-53262510D03*
D13*
X-5237878Y-51387510D03*
D12*
X-5237878Y-49512510D03*
X-6563703Y-52713335D03*
X-6563703Y-50061685D03*
X-7112878Y-51387510D03*
%TD*%
D14*
%TO.C,J4*%
X294475293Y-62175020D03*
X297015293Y-62175020D03*
X299555293Y-62175020D03*
D15*
X302095293Y-62175020D03*
%TD*%
D10*
%TO.C,RGBF14*%
X259775000Y-29642500D03*
X259775000Y-28142500D03*
X254575000Y-28142500D03*
X254575000Y-29642500D03*
%TD*%
D11*
%TO.C,RGB32*%
X287912500Y-47192499D03*
X287912500Y-48692499D03*
X293112500Y-48692499D03*
X293112500Y-47192499D03*
%TD*%
D10*
%TO.C,RGBF19*%
X35937500Y-67742500D03*
X35937500Y-66242500D03*
X30737500Y-66242500D03*
X30737500Y-67742500D03*
%TD*%
D11*
%TO.C,RGB12*%
X40262500Y-4329999D03*
X40262500Y-5829999D03*
X45462500Y-5829999D03*
X45462500Y-4329999D03*
%TD*%
D10*
%TO.C,RGBF20*%
X54987500Y-67742500D03*
X54987500Y-66242500D03*
X49787500Y-66242500D03*
X49787500Y-67742500D03*
%TD*%
D11*
%TO.C,RGB1*%
X326012500Y-4329999D03*
X326012500Y-5829999D03*
X331212500Y-5829999D03*
X331212500Y-4329999D03*
%TD*%
%TO.C,RGB17*%
X21212500Y-4329999D03*
X21212500Y-5829999D03*
X26412500Y-5829999D03*
X26412500Y-4329999D03*
%TD*%
D12*
%TO.C,H10*%
X285243750Y-33337500D03*
X284694575Y-34663325D03*
X284694575Y-32011675D03*
X283368750Y-35212500D03*
D13*
X283368750Y-33337500D03*
D12*
X283368750Y-31462500D03*
X282042925Y-34663325D03*
X282042925Y-32011675D03*
X281493750Y-33337500D03*
%TD*%
%TO.C,H1*%
X94874244Y-11000010D03*
X94325069Y-12325835D03*
X94325069Y-9674185D03*
X92999244Y-12875010D03*
D13*
X92999244Y-11000010D03*
D12*
X92999244Y-9125010D03*
X91673419Y-12325835D03*
X91673419Y-9674185D03*
X91124244Y-11000010D03*
%TD*%
D10*
%TO.C,RGBF21*%
X74037500Y-67742500D03*
X74037500Y-66242500D03*
X68837500Y-66242500D03*
X68837500Y-67742500D03*
%TD*%
D12*
%TO.C,H18*%
X199518750Y-71437500D03*
X198969575Y-72763325D03*
X198969575Y-70111675D03*
X197643750Y-73312500D03*
D13*
X197643750Y-71437500D03*
D12*
X197643750Y-69562500D03*
X196317925Y-72763325D03*
X196317925Y-70111675D03*
X195768750Y-71437500D03*
%TD*%
D10*
%TO.C,RGBF28*%
X207387500Y-67742500D03*
X207387500Y-66242500D03*
X202187500Y-66242500D03*
X202187500Y-67742500D03*
%TD*%
D11*
%TO.C,RGB20*%
X83125000Y-47192499D03*
X83125000Y-48692499D03*
X88325000Y-48692499D03*
X88325000Y-47192499D03*
%TD*%
%TO.C,RGB7*%
X240287500Y-4329999D03*
X240287500Y-5829999D03*
X245487500Y-5829999D03*
X245487500Y-4329999D03*
%TD*%
D10*
%TO.C,RGBF37*%
X7362500Y-105842500D03*
X7362500Y-104342500D03*
X2162500Y-104342500D03*
X2162500Y-105842500D03*
%TD*%
D11*
%TO.C,RGB38*%
X211712500Y-85292499D03*
X211712500Y-86792499D03*
X216912500Y-86792499D03*
X216912500Y-85292499D03*
%TD*%
%TO.C,RGB52*%
X306962500Y-85292499D03*
X306962500Y-86792499D03*
X312162500Y-86792499D03*
X312162500Y-85292499D03*
%TD*%
D10*
%TO.C,RGBF9*%
X155000000Y-29642500D03*
X155000000Y-28142500D03*
X149800000Y-28142500D03*
X149800000Y-29642500D03*
%TD*%
%TO.C,RGBF30*%
X257393750Y-67742500D03*
X257393750Y-66242500D03*
X252193750Y-66242500D03*
X252193750Y-67742500D03*
%TD*%
%TO.C,RGBF36*%
X264537500Y-105842500D03*
X264537500Y-104342500D03*
X259337500Y-104342500D03*
X259337500Y-105842500D03*
%TD*%
D11*
%TO.C,RGB6*%
X221237500Y-4329999D03*
X221237500Y-5829999D03*
X226437500Y-5829999D03*
X226437500Y-4329999D03*
%TD*%
%TO.C,RGB11*%
X183137500Y-4329999D03*
X183137500Y-5829999D03*
X188337500Y-5829999D03*
X188337500Y-4329999D03*
%TD*%
%TO.C,RGB33*%
X306962500Y-47192499D03*
X306962500Y-48692499D03*
X312162500Y-48692499D03*
X312162500Y-47192499D03*
%TD*%
%TO.C,RGB10*%
X159325000Y-4329999D03*
X159325000Y-5829999D03*
X164525000Y-5829999D03*
X164525000Y-4329999D03*
%TD*%
D10*
%TO.C,RGBF35*%
X240725000Y-105842500D03*
X240725000Y-104342500D03*
X235525000Y-104342500D03*
X235525000Y-105842500D03*
%TD*%
%TO.C,RGBF16*%
X312162500Y-29642500D03*
X312162500Y-28142500D03*
X306962500Y-28142500D03*
X306962500Y-29642500D03*
%TD*%
D11*
%TO.C,RGB45*%
X78362500Y-85292499D03*
X78362500Y-86792499D03*
X83562500Y-86792499D03*
X83562500Y-85292499D03*
%TD*%
%TO.C,RGB5*%
X202187500Y-4329999D03*
X202187500Y-5829999D03*
X207387500Y-5829999D03*
X207387500Y-4329999D03*
%TD*%
D12*
%TO.C,H12*%
X13874244Y-11000010D03*
X13325069Y-12325835D03*
X13325069Y-9674185D03*
X11999244Y-12875010D03*
D13*
X11999244Y-11000010D03*
D12*
X11999244Y-9125010D03*
X10673419Y-12325835D03*
X10673419Y-9674185D03*
X10124244Y-11000010D03*
%TD*%
D10*
%TO.C,RGBF18*%
X9743750Y-67742500D03*
X9743750Y-66242500D03*
X4543750Y-66242500D03*
X4543750Y-67742500D03*
%TD*%
D12*
%TO.C,H17*%
X80456250Y-33337500D03*
X79907075Y-34663325D03*
X79907075Y-32011675D03*
X78581250Y-35212500D03*
D13*
X78581250Y-33337500D03*
D12*
X78581250Y-31462500D03*
X77255425Y-34663325D03*
X77255425Y-32011675D03*
X76706250Y-33337500D03*
%TD*%
D11*
%TO.C,RGB3*%
X287912500Y-4329999D03*
X287912500Y-5829999D03*
X293112500Y-5829999D03*
X293112500Y-4329999D03*
%TD*%
D12*
%TO.C,H2*%
X262487244Y-11000010D03*
X261938069Y-12325835D03*
X261938069Y-9674185D03*
X260612244Y-12875010D03*
D13*
X260612244Y-11000010D03*
D12*
X260612244Y-9125010D03*
X259286419Y-12325835D03*
X259286419Y-9674185D03*
X258737244Y-11000010D03*
%TD*%
D10*
%TO.C,RGBF8*%
X135950000Y-29642500D03*
X135950000Y-28142500D03*
X130750000Y-28142500D03*
X130750000Y-29642500D03*
%TD*%
D11*
%TO.C,RGB30*%
X235525000Y-47192499D03*
X235525000Y-48692499D03*
X240725000Y-48692499D03*
X240725000Y-47192499D03*
%TD*%
%TO.C,RGB4*%
X264100000Y-4329999D03*
X264100000Y-5829999D03*
X269300000Y-5829999D03*
X269300000Y-4329999D03*
%TD*%
%TO.C,RGB35*%
X2162500Y-47192499D03*
X2162500Y-48692499D03*
X7362500Y-48692499D03*
X7362500Y-47192499D03*
%TD*%
D10*
%TO.C,RGBF6*%
X97850000Y-29642500D03*
X97850000Y-28142500D03*
X92650000Y-28142500D03*
X92650000Y-29642500D03*
%TD*%
D11*
%TO.C,RGB44*%
X97412500Y-85292499D03*
X97412500Y-86792499D03*
X102612500Y-86792499D03*
X102612500Y-85292499D03*
%TD*%
D12*
%TO.C,H3*%
X85218750Y-71437500D03*
X84669575Y-72763325D03*
X84669575Y-70111675D03*
X83343750Y-73312500D03*
D13*
X83343750Y-71437500D03*
D12*
X83343750Y-69562500D03*
X82017925Y-72763325D03*
X82017925Y-70111675D03*
X81468750Y-71437500D03*
%TD*%
D10*
%TO.C,RGBF15*%
X293112500Y-29642500D03*
X293112500Y-28142500D03*
X287912500Y-28142500D03*
X287912500Y-29642500D03*
%TD*%
%TO.C,RGBF40*%
X135950000Y-105842500D03*
X135950000Y-104342500D03*
X130750000Y-104342500D03*
X130750000Y-105842500D03*
%TD*%
%TO.C,RGBF25*%
X150237500Y-67742500D03*
X150237500Y-66242500D03*
X145037500Y-66242500D03*
X145037500Y-67742500D03*
%TD*%
D11*
%TO.C,RGB46*%
X59312500Y-85292499D03*
X59312500Y-86792499D03*
X64512500Y-86792499D03*
X64512500Y-85292499D03*
%TD*%
%TO.C,RGB18*%
X45025000Y-47192499D03*
X45025000Y-48692499D03*
X50225000Y-48692499D03*
X50225000Y-47192499D03*
%TD*%
D10*
%TO.C,RGBF3*%
X40700000Y-29642500D03*
X40700000Y-28142500D03*
X35500000Y-28142500D03*
X35500000Y-29642500D03*
%TD*%
D12*
%TO.C,H15*%
X253096497Y-100012510D03*
X252547322Y-101338335D03*
X252547322Y-98686685D03*
X251221497Y-101887510D03*
D13*
X251221497Y-100012510D03*
D12*
X251221497Y-98137510D03*
X249895672Y-101338335D03*
X249895672Y-98686685D03*
X249346497Y-100012510D03*
%TD*%
D11*
%TO.C,RGB25*%
X178375000Y-47192499D03*
X178375000Y-48692499D03*
X183575000Y-48692499D03*
X183575000Y-47192499D03*
%TD*%
%TO.C,RGB2*%
X306962500Y-4329999D03*
X306962500Y-5829999D03*
X312162500Y-5829999D03*
X312162500Y-4329999D03*
%TD*%
D12*
%TO.C,H8*%
X326487244Y-84012520D03*
X325938069Y-85338345D03*
X325938069Y-82686695D03*
X324612244Y-85887520D03*
D13*
X324612244Y-84012520D03*
D12*
X324612244Y-82137520D03*
X323286419Y-85338345D03*
X323286419Y-82686695D03*
X322737244Y-84012520D03*
%TD*%
D11*
%TO.C,RGB8*%
X121225000Y-4329999D03*
X121225000Y-5829999D03*
X126425000Y-5829999D03*
X126425000Y-4329999D03*
%TD*%
%TO.C,RGB9*%
X140275000Y-4329999D03*
X140275000Y-5829999D03*
X145475000Y-5829999D03*
X145475000Y-4329999D03*
%TD*%
%TO.C,RGB43*%
X116462500Y-85292499D03*
X116462500Y-86792499D03*
X121662500Y-86792499D03*
X121662500Y-85292499D03*
%TD*%
D10*
%TO.C,RGBF1*%
X2600000Y-29642500D03*
X2600000Y-28142500D03*
X-2600000Y-28142500D03*
X-2600000Y-29642500D03*
%TD*%
%TO.C,RGBF22*%
X93087500Y-67742500D03*
X93087500Y-66242500D03*
X87887500Y-66242500D03*
X87887500Y-67742500D03*
%TD*%
D12*
%TO.C,H7*%
X145725000Y-103012500D03*
X145175825Y-104338325D03*
X145175825Y-101686675D03*
X143850000Y-104887500D03*
D13*
X143850000Y-103012500D03*
D12*
X143850000Y-101137500D03*
X142524175Y-104338325D03*
X142524175Y-101686675D03*
X141975000Y-103012500D03*
%TD*%
D11*
%TO.C,RGB13*%
X59312500Y-4329999D03*
X59312500Y-5829999D03*
X64512500Y-5829999D03*
X64512500Y-4329999D03*
%TD*%
%TO.C,RGB19*%
X64075000Y-47192499D03*
X64075000Y-48692499D03*
X69275000Y-48692499D03*
X69275000Y-47192499D03*
%TD*%
D10*
%TO.C,RGBF17*%
X331212500Y-29642500D03*
X331212500Y-28142500D03*
X326012500Y-28142500D03*
X326012500Y-29642500D03*
%TD*%
%TO.C,RGBF29*%
X226437500Y-67742500D03*
X226437500Y-66242500D03*
X221237500Y-66242500D03*
X221237500Y-67742500D03*
%TD*%
D11*
%TO.C,RGB22*%
X121225000Y-47192499D03*
X121225000Y-48692499D03*
X126425000Y-48692499D03*
X126425000Y-47192499D03*
%TD*%
D10*
%TO.C,RGBF31*%
X293112500Y-105842500D03*
X293112500Y-104342500D03*
X287912500Y-104342500D03*
X287912500Y-105842500D03*
%TD*%
%TO.C,RGBF10*%
X174050000Y-29642500D03*
X174050000Y-28142500D03*
X168850000Y-28142500D03*
X168850000Y-29642500D03*
%TD*%
D16*
%TO.C,C33*%
X35600000Y-23542500D03*
X35600000Y-22582500D03*
%TD*%
%TO.C,C73*%
X159662500Y-80692500D03*
X159662500Y-79732500D03*
%TD*%
%TO.C,C1*%
X2500000Y270000D03*
X2500000Y1230000D03*
%TD*%
%TO.C,C160*%
X259437500Y-99742500D03*
X259437500Y-98782500D03*
%TD*%
%TO.C,C60*%
X150137500Y-61642500D03*
X150137500Y-60682500D03*
%TD*%
D17*
%TO.C,C109*%
X181892500Y-59534375D03*
X180932500Y-59534375D03*
%TD*%
D16*
%TO.C,C195*%
X264200000Y270000D03*
X264200000Y1230000D03*
%TD*%
%TO.C,C152*%
X312062500Y270000D03*
X312062500Y1230000D03*
%TD*%
D18*
%TO.C,U25*%
X43812500Y-79807500D03*
X42862500Y-82157500D03*
X41912500Y-79807500D03*
D19*
X37782501Y-80962500D03*
X47942499Y-80962500D03*
%TD*%
D16*
%TO.C,C22*%
X21550000Y-23542500D03*
X21550000Y-22582500D03*
%TD*%
D20*
%TO.C,C9*%
X19112501Y-5829999D03*
X19112501Y-4329999D03*
%TD*%
D18*
%TO.C,U23*%
X48575000Y-41707500D03*
X47625000Y-44057500D03*
X46675000Y-41707500D03*
D19*
X42545001Y-42862500D03*
X52704999Y-42862500D03*
%TD*%
D20*
%TO.C,C218*%
X23749999Y-28142500D03*
X23749999Y-29642500D03*
%TD*%
D16*
%TO.C,C125*%
X126087500Y-61642500D03*
X126087500Y-60682500D03*
%TD*%
D20*
%TO.C,C238*%
X81025001Y-48692499D03*
X81025001Y-47192499D03*
%TD*%
D16*
%TO.C,C23*%
X31075000Y-42592500D03*
X31075000Y-41632500D03*
%TD*%
D20*
%TO.C,C248*%
X11843749Y-66242500D03*
X11843749Y-67742500D03*
%TD*%
D16*
%TO.C,R14*%
X293345293Y-73155020D03*
X293345293Y-72195020D03*
%TD*%
%TO.C,C108*%
X293012500Y270000D03*
X293012500Y1230000D03*
%TD*%
D20*
%TO.C,C8*%
X-4699999Y-5829999D03*
X-4699999Y-4329999D03*
%TD*%
D21*
%TO.C,C199*%
X291184704Y-62514431D03*
X290505882Y-61835609D03*
%TD*%
D18*
%TO.C,U96*%
X329562500Y-98857500D03*
X328612500Y-101207500D03*
X327662500Y-98857500D03*
D19*
X323532501Y-100012500D03*
X333692499Y-100012500D03*
%TD*%
D18*
%TO.C,U26*%
X124775000Y1155000D03*
X123825000Y-1195000D03*
X122875000Y1155000D03*
D19*
X118745001Y0D03*
X128904999Y0D03*
%TD*%
D18*
%TO.C,U27*%
X143825000Y1155000D03*
X142875000Y-1195000D03*
X141925000Y1155000D03*
D19*
X137795001Y0D03*
X147954999Y0D03*
%TD*%
D22*
%TO.C,J2*%
X280106250Y-19062500D03*
X279106250Y-19062500D03*
X278106250Y-19062500D03*
X277106250Y-19062500D03*
D23*
X281406250Y-15187500D03*
X275806250Y-15187500D03*
%TD*%
D16*
%TO.C,C18*%
X9643750Y-61642500D03*
X9643750Y-60682500D03*
%TD*%
D20*
%TO.C,C284*%
X314262499Y-104342500D03*
X314262499Y-105842500D03*
%TD*%
D16*
%TO.C,C2*%
X26312500Y270000D03*
X26312500Y1230000D03*
%TD*%
D20*
%TO.C,C205*%
X119125001Y-5829999D03*
X119125001Y-4329999D03*
%TD*%
D16*
%TO.C,C123*%
X164187500Y-61642500D03*
X164187500Y-60682500D03*
%TD*%
%TO.C,C17*%
X7262500Y-42592500D03*
X7262500Y-41632500D03*
%TD*%
D20*
%TO.C,C273*%
X190562501Y-86792499D03*
X190562501Y-85292499D03*
%TD*%
%TO.C,C280*%
X219012499Y-104342500D03*
X219012499Y-105842500D03*
%TD*%
D18*
%TO.C,U30*%
X72387500Y-60757500D03*
X71437500Y-63107500D03*
X70487500Y-60757500D03*
D19*
X66357501Y-61912500D03*
X76517499Y-61912500D03*
%TD*%
D16*
%TO.C,C105*%
X178475000Y-42592500D03*
X178475000Y-41632500D03*
%TD*%
D20*
%TO.C,C266*%
X57212501Y-86792499D03*
X57212501Y-85292499D03*
%TD*%
%TO.C,C254*%
X76137499Y-66242500D03*
X76137499Y-67742500D03*
%TD*%
D18*
%TO.C,U38*%
X186687500Y1155000D03*
X185737500Y-1195000D03*
X184787500Y1155000D03*
D19*
X180657501Y0D03*
X190817499Y0D03*
%TD*%
D16*
%TO.C,C99*%
X121325000Y-42592500D03*
X121325000Y-41632500D03*
%TD*%
%TO.C,C122*%
X49887500Y-61642500D03*
X49887500Y-60682500D03*
%TD*%
%TO.C,C20*%
X294812499Y-11362500D03*
X294812499Y-12322500D03*
%TD*%
%TO.C,C71*%
X183475000Y-42592500D03*
X183475000Y-41632500D03*
%TD*%
%TO.C,C179*%
X307062500Y-80692500D03*
X307062500Y-79732500D03*
%TD*%
%TO.C,C81*%
X207287500Y270000D03*
X207287500Y1230000D03*
%TD*%
%TO.C,C151*%
X293012500Y-99742500D03*
X293012500Y-98782500D03*
%TD*%
D18*
%TO.C,U66*%
X186687500Y-60757500D03*
X185737500Y-63107500D03*
X184787500Y-60757500D03*
D19*
X180657501Y-61912500D03*
X190817499Y-61912500D03*
%TD*%
D16*
%TO.C,C44*%
X92750000Y-23542500D03*
X92750000Y-22582500D03*
%TD*%
%TO.C,C19*%
X14406250Y-80692500D03*
X14406250Y-79732500D03*
%TD*%
%TO.C,C98*%
X269200000Y270000D03*
X269200000Y1230000D03*
%TD*%
D18*
%TO.C,U13*%
X62862500Y1155000D03*
X61912500Y-1195000D03*
X60962500Y1155000D03*
D19*
X56832501Y0D03*
X66992499Y0D03*
%TD*%
D16*
%TO.C,C24*%
X35837500Y-61642500D03*
X35837500Y-60682500D03*
%TD*%
D18*
%TO.C,U20*%
X105725000Y1155000D03*
X104775000Y-1195000D03*
X103825000Y1155000D03*
D19*
X99695001Y0D03*
X109854999Y0D03*
%TD*%
D18*
%TO.C,U72*%
X205737500Y-60757500D03*
X204787500Y-63107500D03*
X203837500Y-60757500D03*
D19*
X199707501Y-61912500D03*
X209867499Y-61912500D03*
%TD*%
D24*
%TO.C,U101*%
X290507793Y-69425020D03*
X290507793Y-68925020D03*
X290507793Y-68425020D03*
X290507793Y-67925020D03*
X290507793Y-67425020D03*
X290507793Y-66925020D03*
X290507793Y-66425020D03*
X290507793Y-65925020D03*
X290507793Y-65425020D03*
X290507793Y-64925020D03*
X290507793Y-64425020D03*
X290507793Y-63925020D03*
D25*
X289095293Y-62512520D03*
X288595293Y-62512520D03*
X288095293Y-62512520D03*
X287595293Y-62512520D03*
X287095293Y-62512520D03*
X286595293Y-62512520D03*
X286095293Y-62512520D03*
X285595293Y-62512520D03*
X285095293Y-62512520D03*
X284595293Y-62512520D03*
X284095293Y-62512520D03*
X283595293Y-62512520D03*
D24*
X282182793Y-63925020D03*
X282182793Y-64425020D03*
X282182793Y-64925020D03*
X282182793Y-65425020D03*
X282182793Y-65925020D03*
X282182793Y-66425020D03*
X282182793Y-66925020D03*
X282182793Y-67425020D03*
X282182793Y-67925020D03*
X282182793Y-68425020D03*
X282182793Y-68925020D03*
X282182793Y-69425020D03*
D25*
X283595293Y-70837520D03*
X284095293Y-70837520D03*
X284595293Y-70837520D03*
X285095293Y-70837520D03*
X285595293Y-70837520D03*
X286095293Y-70837520D03*
X286595293Y-70837520D03*
X287095293Y-70837520D03*
X287595293Y-70837520D03*
X288095293Y-70837520D03*
X288595293Y-70837520D03*
X289095293Y-70837520D03*
%TD*%
D16*
%TO.C,C117*%
X2262500Y-42592500D03*
X2262500Y-41632500D03*
%TD*%
%TO.C,C30*%
X54887500Y-61642500D03*
X54887500Y-60682500D03*
%TD*%
D18*
%TO.C,U79*%
X215262500Y-79807500D03*
X214312500Y-82157500D03*
X213362500Y-79807500D03*
D19*
X209232501Y-80962500D03*
X219392499Y-80962500D03*
%TD*%
D16*
%TO.C,C128*%
X68937500Y-61642500D03*
X68937500Y-60682500D03*
%TD*%
D18*
%TO.C,U44*%
X224787500Y1155000D03*
X223837500Y-1195000D03*
X222887500Y1155000D03*
D19*
X218757501Y0D03*
X228917499Y0D03*
%TD*%
D16*
%TO.C,C56*%
X254675000Y-23542500D03*
X254675000Y-22582500D03*
%TD*%
D20*
%TO.C,C274*%
X209612501Y-86792499D03*
X209612501Y-85292499D03*
%TD*%
D18*
%TO.C,U32*%
X162875000Y1155000D03*
X161925000Y-1195000D03*
X160975000Y1155000D03*
D19*
X156845001Y0D03*
X167004999Y0D03*
%TD*%
D18*
%TO.C,U9*%
X43812500Y1155000D03*
X42862500Y-1195000D03*
X41912500Y1155000D03*
D19*
X37782501Y0D03*
X47942499Y0D03*
%TD*%
D20*
%TO.C,C252*%
X38037499Y-66242500D03*
X38037499Y-67742500D03*
%TD*%
D16*
%TO.C,C35*%
X69175000Y-42592500D03*
X69175000Y-41632500D03*
%TD*%
%TO.C,C36*%
X73937500Y-61642500D03*
X73937500Y-60682500D03*
%TD*%
D18*
%TO.C,U55*%
X139062500Y-79807500D03*
X138112500Y-82157500D03*
X137162500Y-79807500D03*
D19*
X133032501Y-80962500D03*
X143192499Y-80962500D03*
%TD*%
D16*
%TO.C,C50*%
X145375000Y270000D03*
X145375000Y1230000D03*
%TD*%
%TO.C,C58*%
X135850000Y-23542500D03*
X135850000Y-22582500D03*
%TD*%
D26*
%TO.C,C200*%
X282184704Y-61835609D03*
X281505882Y-62514431D03*
%TD*%
D18*
%TO.C,U82*%
X229550000Y-22657500D03*
X228600000Y-25007500D03*
X227650000Y-22657500D03*
D19*
X223520001Y-23812500D03*
X233679999Y-23812500D03*
%TD*%
D20*
%TO.C,C277*%
X33274999Y-104342500D03*
X33274999Y-105842500D03*
%TD*%
%TO.C,C251*%
X323912501Y-48692499D03*
X323912501Y-47192499D03*
%TD*%
D16*
%TO.C,C173*%
X264437500Y-99742500D03*
X264437500Y-98782500D03*
%TD*%
D18*
%TO.C,U77*%
X220025000Y-41707500D03*
X219075000Y-44057500D03*
X218125000Y-41707500D03*
D19*
X213995001Y-42862500D03*
X224154999Y-42862500D03*
%TD*%
D20*
%TO.C,C224*%
X138049999Y-28142500D03*
X138049999Y-29642500D03*
%TD*%
D16*
%TO.C,C171*%
X54887500Y-99742500D03*
X54887500Y-98782500D03*
%TD*%
D20*
%TO.C,C220*%
X61849999Y-28142500D03*
X61849999Y-29642500D03*
%TD*%
D27*
%TO.C,U62*%
X173350000Y-59534375D03*
X173350000Y-58884375D03*
X173350000Y-58234375D03*
X173350000Y-57584375D03*
X173350000Y-56934375D03*
X173350000Y-56284375D03*
X173350000Y-55634375D03*
X173350000Y-54984375D03*
X173350000Y-54334375D03*
X173350000Y-53684375D03*
X173350000Y-53034375D03*
X173350000Y-52384375D03*
X179075000Y-52384375D03*
X179075000Y-53034375D03*
X179075000Y-53684375D03*
X179075000Y-54334375D03*
X179075000Y-54984375D03*
X179075000Y-55634375D03*
X179075000Y-56284375D03*
X179075000Y-56934375D03*
X179075000Y-57584375D03*
X179075000Y-58234375D03*
X179075000Y-58884375D03*
X179075000Y-59534375D03*
%TD*%
D16*
%TO.C,C129*%
X87987500Y-61642500D03*
X87987500Y-60682500D03*
%TD*%
D20*
%TO.C,C231*%
X62501Y-48692499D03*
X62501Y-47192499D03*
%TD*%
%TO.C,C245*%
X214375001Y-48692499D03*
X214375001Y-47192499D03*
%TD*%
D16*
%TO.C,C161*%
X331112500Y270000D03*
X331112500Y1230000D03*
%TD*%
%TO.C,C127*%
X30837500Y-61642500D03*
X30837500Y-60682500D03*
%TD*%
D20*
%TO.C,C221*%
X80899999Y-28142500D03*
X80899999Y-29642500D03*
%TD*%
D18*
%TO.C,U58*%
X153350000Y-22657500D03*
X152400000Y-25007500D03*
X151450000Y-22657500D03*
D19*
X147320001Y-23812500D03*
X157479999Y-23812500D03*
%TD*%
D20*
%TO.C,C276*%
X9462499Y-104342500D03*
X9462499Y-105842500D03*
%TD*%
D18*
%TO.C,U31*%
X62862500Y-79807500D03*
X61912500Y-82157500D03*
X60962500Y-79807500D03*
D19*
X56832501Y-80962500D03*
X66992499Y-80962500D03*
%TD*%
D16*
%TO.C,C181*%
X326112500Y-23542500D03*
X326112500Y-22582500D03*
%TD*%
D18*
%TO.C,U89*%
X262887500Y-41707500D03*
X261937500Y-44057500D03*
X260987500Y-41707500D03*
D19*
X256857500Y-42862500D03*
X267017500Y-42862500D03*
%TD*%
D16*
%TO.C,C162*%
X331112500Y-23542500D03*
X331112500Y-22582500D03*
%TD*%
D18*
%TO.C,U92*%
X239075000Y-98857500D03*
X238125000Y-101207500D03*
X237175000Y-98857500D03*
D19*
X233045001Y-100012500D03*
X243204999Y-100012500D03*
%TD*%
D18*
%TO.C,U37*%
X81912500Y-79807500D03*
X80962500Y-82157500D03*
X80012500Y-79807500D03*
D19*
X75882501Y-80962500D03*
X86042499Y-80962500D03*
%TD*%
D18*
%TO.C,U18*%
X34287500Y-60757500D03*
X33337500Y-63107500D03*
X32387500Y-60757500D03*
D19*
X28257501Y-61912500D03*
X38417499Y-61912500D03*
%TD*%
D27*
%TO.C,U69*%
X251931250Y-58343750D03*
X251931250Y-57693750D03*
X251931250Y-57043750D03*
X251931250Y-56393750D03*
X251931250Y-55743750D03*
X251931250Y-55093750D03*
X251931250Y-54443750D03*
X251931250Y-53793750D03*
X251931250Y-53143750D03*
X251931250Y-52493750D03*
X251931250Y-51843750D03*
X251931250Y-51193750D03*
X257656250Y-51193750D03*
X257656250Y-51843750D03*
X257656250Y-52493750D03*
X257656250Y-53143750D03*
X257656250Y-53793750D03*
X257656250Y-54443750D03*
X257656250Y-55093750D03*
X257656250Y-55743750D03*
X257656250Y-56393750D03*
X257656250Y-57043750D03*
X257656250Y-57693750D03*
X257656250Y-58343750D03*
%TD*%
D16*
%TO.C,C189*%
X140375000Y270000D03*
X140375000Y1230000D03*
%TD*%
%TO.C,C66*%
X169187500Y-61642500D03*
X169187500Y-60682500D03*
%TD*%
%TO.C,C141*%
X59412500Y-80692500D03*
X59412500Y-79732500D03*
%TD*%
D18*
%TO.C,U65*%
X181925000Y-41707500D03*
X180975000Y-44057500D03*
X180025000Y-41707500D03*
D19*
X175895001Y-42862500D03*
X186054999Y-42862500D03*
%TD*%
D16*
%TO.C,C72*%
X188237500Y-61642500D03*
X188237500Y-60682500D03*
%TD*%
D20*
%TO.C,C261*%
X209487499Y-66242500D03*
X209487499Y-67742500D03*
%TD*%
D17*
%TO.C,C156*%
X260473750Y-58343750D03*
X259513750Y-58343750D03*
%TD*%
D16*
%TO.C,C41*%
X88225000Y-42592500D03*
X88225000Y-41632500D03*
%TD*%
%TO.C,C14*%
X293812499Y-11362500D03*
X293812499Y-12322500D03*
%TD*%
D20*
%TO.C,C244*%
X195325001Y-48692499D03*
X195325001Y-47192499D03*
%TD*%
D16*
%TO.C,C167*%
X-2500000Y270000D03*
X-2500000Y1230000D03*
%TD*%
%TO.C,C95*%
X264437500Y-42592500D03*
X264437500Y-41632500D03*
%TD*%
D18*
%TO.C,U10*%
X950000Y-22657500D03*
X0Y-25007500D03*
X-950000Y-22657500D03*
D19*
X-5079999Y-23812500D03*
X5079999Y-23812500D03*
%TD*%
D16*
%TO.C,C34*%
X59650000Y-23542500D03*
X59650000Y-22582500D03*
%TD*%
D18*
%TO.C,U97*%
X310512500Y-79807500D03*
X309562500Y-82157500D03*
X308612500Y-79807500D03*
D19*
X304482501Y-80962500D03*
X314642499Y-80962500D03*
%TD*%
D20*
%TO.C,C281*%
X242824999Y-104342500D03*
X242824999Y-105842500D03*
%TD*%
%TO.C,C215*%
X304862501Y-5829999D03*
X304862501Y-4329999D03*
%TD*%
D18*
%TO.C,U87*%
X329562500Y-22657500D03*
X328612500Y-25007500D03*
X327662500Y-22657500D03*
D19*
X323532501Y-23812500D03*
X333692499Y-23812500D03*
%TD*%
D18*
%TO.C,U12*%
X8093750Y-60757500D03*
X7143750Y-63107500D03*
X6193750Y-60757500D03*
D19*
X2063750Y-61912500D03*
X12223750Y-61912500D03*
%TD*%
D16*
%TO.C,C183*%
X40362500Y270000D03*
X40362500Y1230000D03*
%TD*%
D18*
%TO.C,U86*%
X310512500Y-22657500D03*
X309562500Y-25007500D03*
X308612500Y-22657500D03*
D19*
X304482501Y-23812500D03*
X314642499Y-23812500D03*
%TD*%
D18*
%TO.C,U57*%
X250981250Y-79807500D03*
X250031250Y-82157500D03*
X249081250Y-79807500D03*
D28*
X238125000Y-73977500D03*
D29*
X238125000Y-89217500D03*
D19*
X244951250Y-80962500D03*
X255111250Y-80962500D03*
D28*
X261937500Y-73977500D03*
D29*
X261937500Y-89217500D03*
%TD*%
D16*
%TO.C,C28*%
X40600000Y-23542500D03*
X40600000Y-22582500D03*
%TD*%
D18*
%TO.C,U83*%
X239075000Y-41707500D03*
X238125000Y-44057500D03*
X237175000Y-41707500D03*
D19*
X233045001Y-42862500D03*
X243204999Y-42862500D03*
%TD*%
D20*
%TO.C,C234*%
X333312499Y-28142500D03*
X333312499Y-29642500D03*
%TD*%
D16*
%TO.C,C140*%
X135612500Y-80692500D03*
X135612500Y-79732500D03*
%TD*%
%TO.C,C86*%
X226337500Y270000D03*
X226337500Y1230000D03*
%TD*%
D18*
%TO.C,U33*%
X12856250Y-79807500D03*
X11906250Y-82157500D03*
X10956250Y-79807500D03*
D28*
X0Y-73977500D03*
D29*
X0Y-89217500D03*
D19*
X6826250Y-80962500D03*
X16986250Y-80962500D03*
D28*
X23812500Y-73977500D03*
D29*
X23812500Y-89217500D03*
%TD*%
D16*
%TO.C,C96*%
X102275000Y-42592500D03*
X102275000Y-41632500D03*
%TD*%
%TO.C,C43*%
X64412500Y-80692500D03*
X64412500Y-79732500D03*
%TD*%
D20*
%TO.C,C12*%
X57212501Y-5829999D03*
X57212501Y-4329999D03*
%TD*%
D30*
%TO.C,R15*%
X333102500Y-4412500D03*
X334122500Y-4412500D03*
%TD*%
D16*
%TO.C,C93*%
X26075000Y-42592500D03*
X26075000Y-41632500D03*
%TD*%
%TO.C,C130*%
X4643750Y-61642500D03*
X4643750Y-60682500D03*
%TD*%
D17*
%TO.C,C164*%
X324767500Y-59534375D03*
X323807500Y-59534375D03*
%TD*%
D18*
%TO.C,U93*%
X310512500Y1155000D03*
X309562500Y-1195000D03*
X308612500Y1155000D03*
D19*
X304482501Y0D03*
X314642499Y0D03*
%TD*%
D20*
%TO.C,C260*%
X190437499Y-66242500D03*
X190437499Y-67742500D03*
%TD*%
D16*
%TO.C,C89*%
X240625000Y-42592500D03*
X240625000Y-41632500D03*
%TD*%
%TO.C,C194*%
X240387500Y270000D03*
X240387500Y1230000D03*
%TD*%
%TO.C,C63*%
X149900000Y-23542500D03*
X149900000Y-22582500D03*
%TD*%
%TO.C,C88*%
X231100000Y-23542500D03*
X231100000Y-22582500D03*
%TD*%
D20*
%TO.C,C279*%
X138049999Y-104342500D03*
X138049999Y-105842500D03*
%TD*%
%TO.C,C269*%
X114362501Y-86792499D03*
X114362501Y-85292499D03*
%TD*%
%TO.C,C265*%
X38162501Y-86792499D03*
X38162501Y-85292499D03*
%TD*%
D18*
%TO.C,U17*%
X29525000Y-41707500D03*
X28575000Y-44057500D03*
X27625000Y-41707500D03*
D19*
X23495001Y-42862500D03*
X33654999Y-42862500D03*
%TD*%
D20*
%TO.C,C268*%
X95312501Y-86792499D03*
X95312501Y-85292499D03*
%TD*%
D16*
%TO.C,C62*%
X164425000Y270000D03*
X164425000Y1230000D03*
%TD*%
%TO.C,C37*%
X45362500Y-80692500D03*
X45362500Y-79732500D03*
%TD*%
D20*
%TO.C,C275*%
X245331251Y-86792499D03*
X245331251Y-85292499D03*
%TD*%
D18*
%TO.C,U88*%
X291462500Y-41707500D03*
X290512500Y-44057500D03*
X289562500Y-41707500D03*
D19*
X285432501Y-42862500D03*
X295592499Y-42862500D03*
%TD*%
D20*
%TO.C,C253*%
X57087499Y-66242500D03*
X57087499Y-67742500D03*
%TD*%
%TO.C,C255*%
X95187499Y-66242500D03*
X95187499Y-67742500D03*
%TD*%
D16*
%TO.C,C137*%
X192762500Y-80692500D03*
X192762500Y-79732500D03*
%TD*%
%TO.C,C188*%
X121325000Y270000D03*
X121325000Y1230000D03*
%TD*%
%TO.C,C5*%
X83462500Y270000D03*
X83462500Y1230000D03*
%TD*%
D18*
%TO.C,U3*%
X258125000Y-22657500D03*
X257175000Y-25007500D03*
X256225000Y-22657500D03*
D28*
X245268750Y-16827500D03*
D29*
X245268750Y-32067500D03*
D19*
X252095000Y-23812500D03*
X262255000Y-23812500D03*
D28*
X269081250Y-16827500D03*
D29*
X269081250Y-32067500D03*
%TD*%
D16*
%TO.C,C113*%
X252293750Y-61642500D03*
X252293750Y-60682500D03*
%TD*%
D20*
%TO.C,C236*%
X42925001Y-48692499D03*
X42925001Y-47192499D03*
%TD*%
D16*
%TO.C,C52*%
X116800000Y-23542500D03*
X116800000Y-22582500D03*
%TD*%
%TO.C,C51*%
X-2500000Y-23542500D03*
X-2500000Y-22582500D03*
%TD*%
%TO.C,C85*%
X197762500Y-80692500D03*
X197762500Y-79732500D03*
%TD*%
D17*
%TO.C,C286*%
X279845293Y-64675020D03*
X278885293Y-64675020D03*
%TD*%
D31*
%TO.C,U85*%
X290562499Y-10842500D03*
D32*
X291562499Y-9442500D03*
X291062499Y-9442500D03*
X290562499Y-9442500D03*
X290062499Y-9442500D03*
X289562499Y-9442500D03*
X289562499Y-12242500D03*
X290062499Y-12242500D03*
X290562499Y-12242500D03*
X291062499Y-12242500D03*
X291562499Y-12242500D03*
%TD*%
D16*
%TO.C,C124*%
X145137500Y-61642500D03*
X145137500Y-60682500D03*
%TD*%
D27*
%TO.C,U74*%
X316225000Y-59534375D03*
X316225000Y-58884375D03*
X316225000Y-58234375D03*
X316225000Y-57584375D03*
X316225000Y-56934375D03*
X316225000Y-56284375D03*
X316225000Y-55634375D03*
X316225000Y-54984375D03*
X316225000Y-54334375D03*
X316225000Y-53684375D03*
X316225000Y-53034375D03*
X316225000Y-52384375D03*
X321950000Y-52384375D03*
X321950000Y-53034375D03*
X321950000Y-53684375D03*
X321950000Y-54334375D03*
X321950000Y-54984375D03*
X321950000Y-55634375D03*
X321950000Y-56284375D03*
X321950000Y-56934375D03*
X321950000Y-57584375D03*
X321950000Y-58234375D03*
X321950000Y-58884375D03*
X321950000Y-59534375D03*
%TD*%
D16*
%TO.C,C118*%
X293012500Y-42592500D03*
X293012500Y-41632500D03*
%TD*%
D18*
%TO.C,U34*%
X77150000Y-22657500D03*
X76200000Y-25007500D03*
X75250000Y-22657500D03*
D19*
X71120001Y-23812500D03*
X81279999Y-23812500D03*
%TD*%
D18*
%TO.C,U35*%
X86675000Y-41707500D03*
X85725000Y-44057500D03*
X84775000Y-41707500D03*
D19*
X80645001Y-42862500D03*
X90804999Y-42862500D03*
%TD*%
D16*
%TO.C,C53*%
X126325000Y-42592500D03*
X126325000Y-41632500D03*
%TD*%
D20*
%TO.C,C278*%
X57087499Y-104342500D03*
X57087499Y-105842500D03*
%TD*%
%TO.C,C210*%
X200087501Y-5829999D03*
X200087501Y-4329999D03*
%TD*%
D16*
%TO.C,C191*%
X183237500Y270000D03*
X183237500Y1230000D03*
%TD*%
%TO.C,C80*%
X226100000Y-23542500D03*
X226100000Y-22582500D03*
%TD*%
%TO.C,C107*%
X252531250Y-80692500D03*
X252531250Y-79732500D03*
%TD*%
%TO.C,C196*%
X288012500Y270000D03*
X288012500Y1230000D03*
%TD*%
%TO.C,C193*%
X221337500Y270000D03*
X221337500Y1230000D03*
%TD*%
%TO.C,C139*%
X154662500Y-80692500D03*
X154662500Y-79732500D03*
%TD*%
%TO.C,C177*%
X21312500Y270000D03*
X21312500Y1230000D03*
%TD*%
%TO.C,C143*%
X97512500Y-80692500D03*
X97512500Y-79732500D03*
%TD*%
%TO.C,C111*%
X197525000Y-42592500D03*
X197525000Y-41632500D03*
%TD*%
D18*
%TO.C,U6*%
X53337500Y-98857500D03*
X52387500Y-101207500D03*
X51437500Y-98857500D03*
D19*
X47307500Y-100012500D03*
X57467500Y-100012500D03*
%TD*%
D20*
%TO.C,C216*%
X323912501Y-5829999D03*
X323912501Y-4329999D03*
%TD*%
D33*
%TO.C,R113*%
X288062499Y-12352500D03*
X288062499Y-11332500D03*
%TD*%
D16*
%TO.C,C76*%
X193000000Y-23542500D03*
X193000000Y-22582500D03*
%TD*%
%TO.C,C169*%
X7262500Y-99742500D03*
X7262500Y-98782500D03*
%TD*%
%TO.C,C45*%
X111800000Y-23542500D03*
X111800000Y-22582500D03*
%TD*%
%TO.C,C67*%
X140612500Y-80692500D03*
X140612500Y-79732500D03*
%TD*%
%TO.C,C133*%
X40362500Y-80692500D03*
X40362500Y-79732500D03*
%TD*%
%TO.C,C145*%
X312062500Y-80692500D03*
X312062500Y-79732500D03*
%TD*%
D20*
%TO.C,C249*%
X285812501Y-48692499D03*
X285812501Y-47192499D03*
%TD*%
D16*
%TO.C,C7*%
X287062499Y-11362500D03*
X287062499Y-12322500D03*
%TD*%
%TO.C,C29*%
X50125000Y-42592500D03*
X50125000Y-41632500D03*
%TD*%
D18*
%TO.C,U36*%
X91437500Y-60757500D03*
X90487500Y-63107500D03*
X89537500Y-60757500D03*
D19*
X85407501Y-61912500D03*
X95567499Y-61912500D03*
%TD*%
D16*
%TO.C,C150*%
X288012500Y-42592500D03*
X288012500Y-41632500D03*
%TD*%
D18*
%TO.C,U70*%
X191450000Y-22657500D03*
X190500000Y-25007500D03*
X189550000Y-22657500D03*
D19*
X185420001Y-23812500D03*
X195579999Y-23812500D03*
%TD*%
D20*
%TO.C,C227*%
X195199999Y-28142500D03*
X195199999Y-29642500D03*
%TD*%
D18*
%TO.C,U8*%
X215262500Y-98857500D03*
X214312500Y-101207500D03*
X213362500Y-98857500D03*
D19*
X209232500Y-100012500D03*
X219392500Y-100012500D03*
%TD*%
D18*
%TO.C,U50*%
X267650000Y1155000D03*
X266700000Y-1195000D03*
X265750000Y1155000D03*
D19*
X261620001Y0D03*
X271779999Y0D03*
%TD*%
D16*
%TO.C,R9*%
X309695293Y-70355020D03*
X309695293Y-69395020D03*
%TD*%
D18*
%TO.C,U43*%
X100962500Y-79807500D03*
X100012500Y-82157500D03*
X99062500Y-79807500D03*
D19*
X94932501Y-80962500D03*
X105092499Y-80962500D03*
%TD*%
D16*
%TO.C,C79*%
X178712500Y-80692500D03*
X178712500Y-79732500D03*
%TD*%
D20*
%TO.C,C209*%
X304862501Y-86792499D03*
X304862501Y-85292499D03*
%TD*%
D18*
%TO.C,U52*%
X134300000Y-22657500D03*
X133350000Y-25007500D03*
X132400000Y-22657500D03*
D19*
X128270001Y-23812500D03*
X138429999Y-23812500D03*
%TD*%
D20*
%TO.C,C246*%
X233425001Y-48692499D03*
X233425001Y-47192499D03*
%TD*%
D16*
%TO.C,C6*%
X107275000Y270000D03*
X107275000Y1230000D03*
%TD*%
D18*
%TO.C,U22*%
X39050000Y-22657500D03*
X38100000Y-25007500D03*
X37150000Y-22657500D03*
D19*
X33020001Y-23812500D03*
X43179999Y-23812500D03*
%TD*%
D16*
%TO.C,C97*%
X216812500Y-80692500D03*
X216812500Y-79732500D03*
%TD*%
%TO.C,C187*%
X102275000Y270000D03*
X102275000Y1230000D03*
%TD*%
D18*
%TO.C,U5*%
X29525000Y-98857500D03*
X28575000Y-101207500D03*
X27625000Y-98857500D03*
D19*
X23495001Y-100012500D03*
X33654999Y-100012500D03*
%TD*%
D16*
%TO.C,C155*%
X312062500Y-42592500D03*
X312062500Y-41632500D03*
%TD*%
%TO.C,C75*%
X188237500Y270000D03*
X188237500Y1230000D03*
%TD*%
D18*
%TO.C,U67*%
X177162500Y-79807500D03*
X176212500Y-82157500D03*
X175262500Y-79807500D03*
D19*
X171132501Y-80962500D03*
X181292499Y-80962500D03*
%TD*%
D20*
%TO.C,C263*%
X259493749Y-66242500D03*
X259493749Y-67742500D03*
%TD*%
D16*
%TO.C,C126*%
X107037500Y-61642500D03*
X107037500Y-60682500D03*
%TD*%
D18*
%TO.C,U54*%
X148587500Y-60757500D03*
X147637500Y-63107500D03*
X146687500Y-60757500D03*
D19*
X142557501Y-61912500D03*
X152717499Y-61912500D03*
%TD*%
D16*
%TO.C,C31*%
X126325000Y270000D03*
X126325000Y1230000D03*
%TD*%
%TO.C,R13*%
X288345293Y-57945020D03*
X288345293Y-58905020D03*
%TD*%
D20*
%TO.C,C283*%
X295212499Y-104342500D03*
X295212499Y-105842500D03*
%TD*%
%TO.C,C285*%
X333312499Y-104342500D03*
X333312499Y-105842500D03*
%TD*%
D18*
%TO.C,U53*%
X143825000Y-41707500D03*
X142875000Y-44057500D03*
X141925000Y-41707500D03*
D19*
X137795001Y-42862500D03*
X147954999Y-42862500D03*
%TD*%
D27*
%TO.C,U68*%
X211450000Y-59534375D03*
X211450000Y-58884375D03*
X211450000Y-58234375D03*
X211450000Y-57584375D03*
X211450000Y-56934375D03*
X211450000Y-56284375D03*
X211450000Y-55634375D03*
X211450000Y-54984375D03*
X211450000Y-54334375D03*
X211450000Y-53684375D03*
X211450000Y-53034375D03*
X211450000Y-52384375D03*
X217175000Y-52384375D03*
X217175000Y-53034375D03*
X217175000Y-53684375D03*
X217175000Y-54334375D03*
X217175000Y-54984375D03*
X217175000Y-55634375D03*
X217175000Y-56284375D03*
X217175000Y-56934375D03*
X217175000Y-57584375D03*
X217175000Y-58234375D03*
X217175000Y-58884375D03*
X217175000Y-59534375D03*
%TD*%
D16*
%TO.C,C64*%
X154900000Y-23542500D03*
X154900000Y-22582500D03*
%TD*%
D20*
%TO.C,C207*%
X157225001Y-5829999D03*
X157225001Y-4329999D03*
%TD*%
D18*
%TO.C,U29*%
X67625000Y-41707500D03*
X66675000Y-44057500D03*
X65725000Y-41707500D03*
D19*
X61595001Y-42862500D03*
X71754999Y-42862500D03*
%TD*%
D16*
%TO.C,C49*%
X83462500Y-80692500D03*
X83462500Y-79732500D03*
%TD*%
%TO.C,C82*%
X212050000Y-23542500D03*
X212050000Y-22582500D03*
%TD*%
D20*
%TO.C,C217*%
X4699999Y-28142500D03*
X4699999Y-29642500D03*
%TD*%
D16*
%TO.C,C138*%
X173712500Y-80692500D03*
X173712500Y-79732500D03*
%TD*%
D34*
%TO.C,C202*%
X290255882Y-71335609D03*
X290934704Y-72014431D03*
%TD*%
D16*
%TO.C,C178*%
X135850000Y-99742500D03*
X135850000Y-98782500D03*
%TD*%
%TO.C,C55*%
X102512500Y-80692500D03*
X102512500Y-79732500D03*
%TD*%
D18*
%TO.C,U91*%
X329562500Y-41707500D03*
X328612500Y-44057500D03*
X327662500Y-41707500D03*
D19*
X323532501Y-42862500D03*
X333692499Y-42862500D03*
%TD*%
D20*
%TO.C,C13*%
X76262501Y-5829999D03*
X76262501Y-4329999D03*
%TD*%
D16*
%TO.C,C38*%
X54650000Y-23542500D03*
X54650000Y-22582500D03*
%TD*%
D18*
%TO.C,U40*%
X96200000Y-22657500D03*
X95250000Y-25007500D03*
X94300000Y-22657500D03*
D19*
X90170001Y-23812500D03*
X100329999Y-23812500D03*
%TD*%
D16*
%TO.C,C158*%
X211812500Y-99742500D03*
X211812500Y-98782500D03*
%TD*%
D20*
%TO.C,C282*%
X266637499Y-104342500D03*
X266637499Y-105842500D03*
%TD*%
D27*
%TO.C,U21*%
X17378125Y-59534375D03*
X17378125Y-58884375D03*
X17378125Y-58234375D03*
X17378125Y-57584375D03*
X17378125Y-56934375D03*
X17378125Y-56284375D03*
X17378125Y-55634375D03*
X17378125Y-54984375D03*
X17378125Y-54334375D03*
X17378125Y-53684375D03*
X17378125Y-53034375D03*
X17378125Y-52384375D03*
X23103125Y-52384375D03*
X23103125Y-53034375D03*
X23103125Y-53684375D03*
X23103125Y-54334375D03*
X23103125Y-54984375D03*
X23103125Y-55634375D03*
X23103125Y-56284375D03*
X23103125Y-56934375D03*
X23103125Y-57584375D03*
X23103125Y-58234375D03*
X23103125Y-58884375D03*
X23103125Y-59534375D03*
%TD*%
D20*
%TO.C,C256*%
X114237499Y-66242500D03*
X114237499Y-67742500D03*
%TD*%
D35*
%TO.C,SW2*%
X309595293Y-72675020D03*
X305395293Y-72675020D03*
%TD*%
D20*
%TO.C,C267*%
X76262501Y-86792499D03*
X76262501Y-85292499D03*
%TD*%
D16*
%TO.C,C176*%
X307062500Y-42592500D03*
X307062500Y-41632500D03*
%TD*%
%TO.C,C46*%
X97750000Y-23542500D03*
X97750000Y-22582500D03*
%TD*%
D20*
%TO.C,C230*%
X261874999Y-28142500D03*
X261874999Y-29642500D03*
%TD*%
D16*
%TO.C,C69*%
X188000000Y-23542500D03*
X188000000Y-22582500D03*
%TD*%
D18*
%TO.C,U90*%
X310512500Y-41707500D03*
X309562500Y-44057500D03*
X308612500Y-41707500D03*
D19*
X304482501Y-42862500D03*
X314642499Y-42862500D03*
%TD*%
D20*
%TO.C,C232*%
X295212499Y-28142500D03*
X295212499Y-29642500D03*
%TD*%
%TO.C,C212*%
X238187501Y-5829999D03*
X238187501Y-4329999D03*
%TD*%
%TO.C,C223*%
X118999999Y-28142500D03*
X118999999Y-29642500D03*
%TD*%
D16*
%TO.C,C149*%
X49887500Y-99742500D03*
X49887500Y-98782500D03*
%TD*%
D18*
%TO.C,U75*%
X291462500Y1155000D03*
X290512500Y-1195000D03*
X289562500Y1155000D03*
D19*
X285432501Y0D03*
X295592499Y0D03*
%TD*%
D18*
%TO.C,U45*%
X243837500Y1155000D03*
X242887500Y-1195000D03*
X241937500Y1155000D03*
D19*
X237807501Y0D03*
X247967499Y0D03*
%TD*%
D20*
%TO.C,C272*%
X171512501Y-86792499D03*
X171512501Y-85292499D03*
%TD*%
D16*
%TO.C,C197*%
X307062500Y270000D03*
X307062500Y1230000D03*
%TD*%
%TO.C,C192*%
X202287500Y270000D03*
X202287500Y1230000D03*
%TD*%
%TO.C,C74*%
X207050000Y-23542500D03*
X207050000Y-22582500D03*
%TD*%
D17*
%TO.C,C110*%
X143792500Y-59534375D03*
X142832500Y-59534375D03*
%TD*%
D16*
%TO.C,C166*%
X331112500Y-42592500D03*
X331112500Y-41632500D03*
%TD*%
D36*
%TO.C,U102*%
X294995293Y-72330020D03*
X294995293Y-71060020D03*
X294995293Y-69790020D03*
X294995293Y-68520020D03*
X302195293Y-68520020D03*
X302195293Y-69790020D03*
X302195293Y-71060020D03*
X302195293Y-72330020D03*
%TD*%
D17*
%TO.C,C287*%
X279845293Y-63675020D03*
X278885293Y-63675020D03*
%TD*%
D16*
%TO.C,C163*%
X130850000Y-99742500D03*
X130850000Y-98782500D03*
%TD*%
%TO.C,C182*%
X326112500Y-42592500D03*
X326112500Y-41632500D03*
%TD*%
D18*
%TO.C,U47*%
X124775000Y-41707500D03*
X123825000Y-44057500D03*
X122875000Y-41707500D03*
D19*
X118745001Y-42862500D03*
X128904999Y-42862500D03*
%TD*%
D16*
%TO.C,C112*%
X216575000Y-42592500D03*
X216575000Y-41632500D03*
%TD*%
%TO.C,C185*%
X59412500Y270000D03*
X59412500Y1230000D03*
%TD*%
D18*
%TO.C,U95*%
X310512500Y-98857500D03*
X309562500Y-101207500D03*
X308612500Y-98857500D03*
D19*
X304482501Y-100012500D03*
X314642499Y-100012500D03*
%TD*%
D20*
%TO.C,C250*%
X304862501Y-48692499D03*
X304862501Y-47192499D03*
%TD*%
D16*
%TO.C,C68*%
X168950000Y-23542500D03*
X168950000Y-22582500D03*
%TD*%
%TO.C,C27*%
X16550000Y-23542500D03*
X16550000Y-22582500D03*
%TD*%
%TO.C,C157*%
X312062500Y-99742500D03*
X312062500Y-98782500D03*
%TD*%
D20*
%TO.C,C208*%
X181037501Y-5829999D03*
X181037501Y-4329999D03*
%TD*%
%TO.C,C228*%
X214249999Y-28142500D03*
X214249999Y-29642500D03*
%TD*%
D18*
%TO.C,U71*%
X200975000Y-41707500D03*
X200025000Y-44057500D03*
X199075000Y-41707500D03*
D19*
X194945001Y-42862500D03*
X205104999Y-42862500D03*
%TD*%
D16*
%TO.C,C15*%
X259675000Y-23542500D03*
X259675000Y-22582500D03*
%TD*%
D18*
%TO.C,U14*%
X81912500Y1155000D03*
X80962500Y-1195000D03*
X80012500Y1155000D03*
D19*
X75882501Y0D03*
X86042499Y0D03*
%TD*%
D16*
%TO.C,C142*%
X78462500Y-80692500D03*
X78462500Y-79732500D03*
%TD*%
%TO.C,C288*%
X304095293Y-72195020D03*
X304095293Y-73155020D03*
%TD*%
D20*
%TO.C,C237*%
X61975001Y-48692499D03*
X61975001Y-47192499D03*
%TD*%
%TO.C,C225*%
X157099999Y-28142500D03*
X157099999Y-29642500D03*
%TD*%
D16*
%TO.C,C203*%
X279845293Y-65695020D03*
X279845293Y-66655020D03*
%TD*%
%TO.C,C3*%
X45362500Y270000D03*
X45362500Y1230000D03*
%TD*%
%TO.C,C204*%
X305295293Y-69395020D03*
X305295293Y-70355020D03*
%TD*%
%TO.C,C90*%
X257293750Y-61642500D03*
X257293750Y-60682500D03*
%TD*%
%TO.C,C114*%
X235625000Y-42592500D03*
X235625000Y-41632500D03*
%TD*%
D20*
%TO.C,C233*%
X314262499Y-28142500D03*
X314262499Y-29642500D03*
%TD*%
D18*
%TO.C,U28*%
X58100000Y-22657500D03*
X57150000Y-25007500D03*
X56200000Y-22657500D03*
D19*
X52070001Y-23812500D03*
X62229999Y-23812500D03*
%TD*%
D16*
%TO.C,C172*%
X240625000Y-99742500D03*
X240625000Y-98782500D03*
%TD*%
D20*
%TO.C,C10*%
X100075001Y-5829999D03*
X100075001Y-4329999D03*
%TD*%
D16*
%TO.C,C116*%
X293012500Y-23542500D03*
X293012500Y-22582500D03*
%TD*%
%TO.C,C92*%
X83225000Y-42592500D03*
X83225000Y-41632500D03*
%TD*%
D20*
%TO.C,C239*%
X100075001Y-48692499D03*
X100075001Y-47192499D03*
%TD*%
D16*
%TO.C,C101*%
X140375000Y-42592500D03*
X140375000Y-41632500D03*
%TD*%
D20*
%TO.C,C262*%
X228537499Y-66242500D03*
X228537499Y-67742500D03*
%TD*%
D18*
%TO.C,U42*%
X110487500Y-60757500D03*
X109537500Y-63107500D03*
X108587500Y-60757500D03*
D19*
X104457501Y-61912500D03*
X114617499Y-61912500D03*
%TD*%
D20*
%TO.C,C229*%
X233299999Y-28142500D03*
X233299999Y-29642500D03*
%TD*%
D16*
%TO.C,C59*%
X145375000Y-42592500D03*
X145375000Y-41632500D03*
%TD*%
D20*
%TO.C,C270*%
X133412501Y-86792499D03*
X133412501Y-85292499D03*
%TD*%
D16*
%TO.C,C4*%
X64412500Y270000D03*
X64412500Y1230000D03*
%TD*%
D18*
%TO.C,U4*%
X5712500Y-98857500D03*
X4762500Y-101207500D03*
X3812500Y-98857500D03*
D19*
X-317500Y-100012500D03*
X9842500Y-100012500D03*
%TD*%
D17*
%TO.C,C153*%
X219992500Y-59534375D03*
X219032500Y-59534375D03*
%TD*%
D16*
%TO.C,R12*%
X287345293Y-58905020D03*
X287345293Y-57945020D03*
%TD*%
D18*
%TO.C,U11*%
X5712500Y-41707500D03*
X4762500Y-44057500D03*
X3812500Y-41707500D03*
D19*
X-317500Y-42862500D03*
X9842500Y-42862500D03*
%TD*%
D16*
%TO.C,C40*%
X78700000Y-23542500D03*
X78700000Y-22582500D03*
%TD*%
%TO.C,C78*%
X207287500Y-61642500D03*
X207287500Y-60682500D03*
%TD*%
%TO.C,C144*%
X116562500Y-80692500D03*
X116562500Y-79732500D03*
%TD*%
D20*
%TO.C,C206*%
X138175001Y-5829999D03*
X138175001Y-4329999D03*
%TD*%
D16*
%TO.C,C94*%
X245387500Y270000D03*
X245387500Y1230000D03*
%TD*%
D18*
%TO.C,U73*%
X196212500Y-79807500D03*
X195262500Y-82157500D03*
X194312500Y-79807500D03*
D19*
X190182501Y-80962500D03*
X200342499Y-80962500D03*
%TD*%
D18*
%TO.C,U84*%
X255743750Y-60757500D03*
X254793750Y-63107500D03*
X253843750Y-60757500D03*
D29*
X242887499Y-53657500D03*
D28*
X242887500Y-68897500D03*
D19*
X249713751Y-61912500D03*
X259873749Y-61912500D03*
D28*
X266700000Y-68897500D03*
D29*
X266700001Y-53657500D03*
%TD*%
D16*
%TO.C,R11*%
X289345293Y-58905020D03*
X289345293Y-57945020D03*
%TD*%
D37*
%TO.C,L1*%
X289312499Y-14092500D03*
X291812499Y-14092500D03*
%TD*%
D18*
%TO.C,U41*%
X105725000Y-41707500D03*
X104775000Y-44057500D03*
X103825000Y-41707500D03*
D19*
X99695001Y-42862500D03*
X109854999Y-42862500D03*
%TD*%
D18*
%TO.C,U48*%
X129537500Y-60757500D03*
X128587500Y-63107500D03*
X127637500Y-60757500D03*
D19*
X123507501Y-61912500D03*
X133667499Y-61912500D03*
%TD*%
D20*
%TO.C,C211*%
X219137501Y-5829999D03*
X219137501Y-4329999D03*
%TD*%
D16*
%TO.C,C57*%
X130850000Y-23542500D03*
X130850000Y-22582500D03*
%TD*%
D34*
%TO.C,C201*%
X291005882Y-70585609D03*
X291684704Y-71264431D03*
%TD*%
D16*
%TO.C,C65*%
X164425000Y-42592500D03*
X164425000Y-41632500D03*
%TD*%
D18*
%TO.C,U39*%
X205737500Y1155000D03*
X204787500Y-1195000D03*
X203837500Y1155000D03*
D19*
X199707501Y0D03*
X209867499Y0D03*
%TD*%
D20*
%TO.C,C226*%
X176149999Y-28142500D03*
X176149999Y-29642500D03*
%TD*%
D18*
%TO.C,U60*%
X167637500Y-60757500D03*
X166687500Y-63107500D03*
X165737500Y-60757500D03*
D19*
X161607501Y-61912500D03*
X171767499Y-61912500D03*
%TD*%
D16*
%TO.C,C147*%
X2262500Y-99742500D03*
X2262500Y-98782500D03*
%TD*%
%TO.C,C170*%
X31075000Y-99742500D03*
X31075000Y-98782500D03*
%TD*%
%TO.C,C184*%
X326112500Y-99742500D03*
X326112500Y-98782500D03*
%TD*%
D27*
%TO.C,U56*%
X59050000Y-59534375D03*
X59050000Y-58884375D03*
X59050000Y-58234375D03*
X59050000Y-57584375D03*
X59050000Y-56934375D03*
X59050000Y-56284375D03*
X59050000Y-55634375D03*
X59050000Y-54984375D03*
X59050000Y-54334375D03*
X59050000Y-53684375D03*
X59050000Y-53034375D03*
X59050000Y-52384375D03*
X64775000Y-52384375D03*
X64775000Y-53034375D03*
X64775000Y-53684375D03*
X64775000Y-54334375D03*
X64775000Y-54984375D03*
X64775000Y-55634375D03*
X64775000Y-56284375D03*
X64775000Y-56934375D03*
X64775000Y-57584375D03*
X64775000Y-58234375D03*
X64775000Y-58884375D03*
X64775000Y-59534375D03*
%TD*%
D18*
%TO.C,U94*%
X291462500Y-98857500D03*
X290512500Y-101207500D03*
X289562500Y-98857500D03*
D19*
X285432501Y-100012500D03*
X295592499Y-100012500D03*
%TD*%
D18*
%TO.C,U64*%
X172400000Y-22657500D03*
X171450000Y-25007500D03*
X170500000Y-22657500D03*
D19*
X166370001Y-23812500D03*
X176529999Y-23812500D03*
%TD*%
D18*
%TO.C,U7*%
X134300000Y-98857500D03*
X133350000Y-101207500D03*
X132400000Y-98857500D03*
D29*
X76200000Y-91757500D03*
D28*
X76200000Y-106997500D03*
D19*
X128270000Y-100012500D03*
X138430000Y-100012500D03*
D29*
X190500000Y-91757500D03*
D28*
X190500000Y-106997500D03*
%TD*%
D18*
%TO.C,U59*%
X162875000Y-41707500D03*
X161925000Y-44057500D03*
X160975000Y-41707500D03*
D19*
X156845001Y-42862500D03*
X167004999Y-42862500D03*
%TD*%
D17*
%TO.C,C104*%
X67592500Y-59534375D03*
X66632500Y-59534375D03*
%TD*%
D20*
%TO.C,C241*%
X138175001Y-48692499D03*
X138175001Y-47192499D03*
%TD*%
D16*
%TO.C,C70*%
X173950000Y-23542500D03*
X173950000Y-22582500D03*
%TD*%
%TO.C,C198*%
X326112500Y270000D03*
X326112500Y1230000D03*
%TD*%
%TO.C,C175*%
X307062500Y-23542500D03*
X307062500Y-22582500D03*
%TD*%
%TO.C,C119*%
X221337500Y-61642500D03*
X221337500Y-60682500D03*
%TD*%
D18*
%TO.C,U78*%
X224787500Y-60757500D03*
X223837500Y-63107500D03*
X222887500Y-60757500D03*
D19*
X218757501Y-61912500D03*
X228917499Y-61912500D03*
%TD*%
D20*
%TO.C,C11*%
X38162501Y-5829999D03*
X38162501Y-4329999D03*
%TD*%
%TO.C,C271*%
X152462501Y-86792499D03*
X152462501Y-85292499D03*
%TD*%
D16*
%TO.C,C131*%
X9406250Y-80692500D03*
X9406250Y-79732500D03*
%TD*%
D18*
%TO.C,U99*%
X329562500Y1155000D03*
X328612500Y-1195000D03*
X327662500Y1155000D03*
D19*
X323532501Y0D03*
X333692499Y0D03*
%TD*%
D17*
%TO.C,C103*%
X25920625Y-59534375D03*
X24960625Y-59534375D03*
%TD*%
D18*
%TO.C,U16*%
X20000000Y-22657500D03*
X19050000Y-25007500D03*
X18100000Y-22657500D03*
D19*
X13970001Y-23812500D03*
X24129999Y-23812500D03*
%TD*%
D16*
%TO.C,C77*%
X202525000Y-42592500D03*
X202525000Y-41632500D03*
%TD*%
D38*
%TO.C,Y2*%
X288995293Y-74425020D03*
X287795293Y-74425020D03*
X286595293Y-74425020D03*
%TD*%
D16*
%TO.C,C16*%
X2500000Y-23542500D03*
X2500000Y-22582500D03*
%TD*%
D20*
%TO.C,C240*%
X119125001Y-48692499D03*
X119125001Y-47192499D03*
%TD*%
D16*
%TO.C,C83*%
X221575000Y-42592500D03*
X221575000Y-41632500D03*
%TD*%
%TO.C,C87*%
X45125000Y-42592500D03*
X45125000Y-41632500D03*
%TD*%
%TO.C,C174*%
X331112500Y-99742500D03*
X331112500Y-98782500D03*
%TD*%
D20*
%TO.C,C247*%
X257237501Y-48692499D03*
X257237501Y-47192499D03*
%TD*%
D16*
%TO.C,C39*%
X73700000Y-23542500D03*
X73700000Y-22582500D03*
%TD*%
%TO.C,C180*%
X307062500Y-99742500D03*
X307062500Y-98782500D03*
%TD*%
%TO.C,C54*%
X131087500Y-61642500D03*
X131087500Y-60682500D03*
%TD*%
%TO.C,C136*%
X211812500Y-80692500D03*
X211812500Y-79732500D03*
%TD*%
%TO.C,C102*%
X159425000Y-42592500D03*
X159425000Y-41632500D03*
%TD*%
%TO.C,C135*%
X288012500Y-23542500D03*
X288012500Y-22582500D03*
%TD*%
%TO.C,C100*%
X216812500Y-99742500D03*
X216812500Y-98782500D03*
%TD*%
%TO.C,C47*%
X107275000Y-42592500D03*
X107275000Y-41632500D03*
%TD*%
%TO.C,C190*%
X159425000Y270000D03*
X159425000Y1230000D03*
%TD*%
D20*
%TO.C,C242*%
X157225001Y-48692499D03*
X157225001Y-47192499D03*
%TD*%
D27*
%TO.C,U51*%
X135250000Y-59534375D03*
X135250000Y-58884375D03*
X135250000Y-58234375D03*
X135250000Y-57584375D03*
X135250000Y-56934375D03*
X135250000Y-56284375D03*
X135250000Y-55634375D03*
X135250000Y-54984375D03*
X135250000Y-54334375D03*
X135250000Y-53684375D03*
X135250000Y-53034375D03*
X135250000Y-52384375D03*
X140975000Y-52384375D03*
X140975000Y-53034375D03*
X140975000Y-53684375D03*
X140975000Y-54334375D03*
X140975000Y-54984375D03*
X140975000Y-55634375D03*
X140975000Y-56284375D03*
X140975000Y-56934375D03*
X140975000Y-57584375D03*
X140975000Y-58234375D03*
X140975000Y-58884375D03*
X140975000Y-59534375D03*
%TD*%
D20*
%TO.C,C259*%
X171387499Y-66242500D03*
X171387499Y-67742500D03*
%TD*%
D18*
%TO.C,U49*%
X120012500Y-79807500D03*
X119062500Y-82157500D03*
X118112500Y-79807500D03*
D19*
X113982501Y-80962500D03*
X124142499Y-80962500D03*
%TD*%
D20*
%TO.C,C258*%
X152337499Y-66242500D03*
X152337499Y-67742500D03*
%TD*%
D16*
%TO.C,C186*%
X78462500Y270000D03*
X78462500Y1230000D03*
%TD*%
%TO.C,C134*%
X247531250Y-80692500D03*
X247531250Y-79732500D03*
%TD*%
D18*
%TO.C,U61*%
X158112500Y-79807500D03*
X157162500Y-82157500D03*
X156212500Y-79807500D03*
D19*
X152082501Y-80962500D03*
X162242499Y-80962500D03*
%TD*%
D18*
%TO.C,U46*%
X115250000Y-22657500D03*
X114300000Y-25007500D03*
X113350000Y-22657500D03*
D19*
X109220001Y-23812500D03*
X119379999Y-23812500D03*
%TD*%
D18*
%TO.C,U76*%
X210500000Y-22657500D03*
X209550000Y-25007500D03*
X208600000Y-22657500D03*
D19*
X204470001Y-23812500D03*
X214629999Y-23812500D03*
%TD*%
D17*
%TO.C,C106*%
X105692500Y-59534375D03*
X104732500Y-59534375D03*
%TD*%
D16*
%TO.C,C154*%
X312062500Y-23542500D03*
X312062500Y-22582500D03*
%TD*%
D20*
%TO.C,C222*%
X99949999Y-28142500D03*
X99949999Y-29642500D03*
%TD*%
D16*
%TO.C,C168*%
X288012500Y-99742500D03*
X288012500Y-98782500D03*
%TD*%
D18*
%TO.C,U98*%
X262887500Y-98857500D03*
X261937500Y-101207500D03*
X260987500Y-98857500D03*
D19*
X256857500Y-100012500D03*
X267017500Y-100012500D03*
%TD*%
D16*
%TO.C,C148*%
X26075000Y-99742500D03*
X26075000Y-98782500D03*
%TD*%
%TO.C,C91*%
X64175000Y-42592500D03*
X64175000Y-41632500D03*
%TD*%
%TO.C,C159*%
X235625000Y-99742500D03*
X235625000Y-98782500D03*
%TD*%
D20*
%TO.C,C219*%
X42799999Y-28142500D03*
X42799999Y-29642500D03*
%TD*%
D16*
%TO.C,C121*%
X183237500Y-61642500D03*
X183237500Y-60682500D03*
%TD*%
D20*
%TO.C,C213*%
X262000001Y-5829999D03*
X262000001Y-4329999D03*
%TD*%
D18*
%TO.C,U2*%
X24762500Y1155000D03*
X23812500Y-1195000D03*
X22862500Y1155000D03*
D19*
X18732501Y0D03*
X28892499Y0D03*
%TD*%
D16*
%TO.C,C61*%
X121562500Y-80692500D03*
X121562500Y-79732500D03*
%TD*%
D20*
%TO.C,C243*%
X176275001Y-48692499D03*
X176275001Y-47192499D03*
%TD*%
D18*
%TO.C,U1*%
X950000Y1155000D03*
X0Y-1195000D03*
X-950000Y1155000D03*
D19*
X-5079999Y0D03*
X5079999Y0D03*
%TD*%
D18*
%TO.C,U80*%
X291462500Y-22657500D03*
X290512500Y-25007500D03*
X289562500Y-22657500D03*
D19*
X285432501Y-23812500D03*
X295592499Y-23812500D03*
%TD*%
D35*
%TO.C,SW1*%
X309595293Y-67075020D03*
X305395293Y-67075020D03*
%TD*%
D20*
%TO.C,C264*%
X7206251Y-86792499D03*
X7206251Y-85292499D03*
%TD*%
D16*
%TO.C,C84*%
X226337500Y-61642500D03*
X226337500Y-60682500D03*
%TD*%
D18*
%TO.C,U24*%
X53337500Y-60757500D03*
X52387500Y-63107500D03*
X51437500Y-60757500D03*
D19*
X47307501Y-61912500D03*
X57467499Y-61912500D03*
%TD*%
D39*
%TO.C,C165*%
X287082499Y-10342500D03*
X288042499Y-10342500D03*
%TD*%
D20*
%TO.C,C257*%
X133287499Y-66242500D03*
X133287499Y-67742500D03*
%TD*%
D27*
%TO.C,U15*%
X97150000Y-59534375D03*
X97150000Y-58884375D03*
X97150000Y-58234375D03*
X97150000Y-57584375D03*
X97150000Y-56934375D03*
X97150000Y-56284375D03*
X97150000Y-55634375D03*
X97150000Y-54984375D03*
X97150000Y-54334375D03*
X97150000Y-53684375D03*
X97150000Y-53034375D03*
X97150000Y-52384375D03*
X102875000Y-52384375D03*
X102875000Y-53034375D03*
X102875000Y-53684375D03*
X102875000Y-54334375D03*
X102875000Y-54984375D03*
X102875000Y-55634375D03*
X102875000Y-56284375D03*
X102875000Y-56934375D03*
X102875000Y-57584375D03*
X102875000Y-58234375D03*
X102875000Y-58884375D03*
X102875000Y-59534375D03*
%TD*%
D16*
%TO.C,C42*%
X92987500Y-61642500D03*
X92987500Y-60682500D03*
%TD*%
%TO.C,C48*%
X112037500Y-61642500D03*
X112037500Y-60682500D03*
%TD*%
D20*
%TO.C,C235*%
X23875001Y-48692499D03*
X23875001Y-47192499D03*
%TD*%
D16*
%TO.C,C120*%
X202287500Y-61642500D03*
X202287500Y-60682500D03*
%TD*%
D20*
%TO.C,C214*%
X285812501Y-5829999D03*
X285812501Y-4329999D03*
%TD*%
D16*
%TO.C,C115*%
X259437500Y-42592500D03*
X259437500Y-41632500D03*
%TD*%
M02*
