M48
; DRILL file {KiCad 8.0.6} date 2025-04-02T20:39:07+0700
; FORMAT={-:-/ absolute / inch / decimal}
; #@! TF.CreationDate,2025-04-02T20:39:07+07:00
; #@! TF.GenerationSoftware,Kicad,Pcbnew,8.0.6
; #@! TF.FileFunction,Plated,1,4,PTH
FMAT,2
INCH
; #@! TA.AperFunction,Plated,PTH,ComponentDrill
T1C0.0079
; #@! TA.AperFunction,Plated,PTH,ViaDrill
T2C0.0118
; #@! TA.AperFunction,Plated,PTH,ViaDrill
T3C0.0157
; #@! TA.AperFunction,Plated,PTH,ComponentDrill
T4C0.0197
; #@! TA.AperFunction,Plated,PTH,ComponentDrill
T5C0.0394
; #@! TA.AperFunction,Plated,PTH,ComponentDrill
T6C0.0984
%
G90
G05
T1
X11.4021Y-0.4269
X11.4395Y-0.4042
X11.4395Y-0.4495
X11.4769Y-0.4269
T2
X-0.1138Y-3.3875
X-0.1138Y-4.167
X-0.1024Y-0.2689
X-0.1024Y-1.2064
X-0.0435Y-1.8875
X-0.0435Y-2.667
X0.0Y-0.0864
X0.0Y-1.0239
X0.128Y0.0484
X0.128Y-0.8891
X0.1875Y-1.7739
X0.1875Y-4.0239
X0.2812Y-2.5239
X0.2859Y-1.6194
X0.3056Y-3.8891
X0.4631Y-2.1903
X0.4688Y-3.2739
X0.4867Y-2.1647
X0.5103Y-2.1391
X0.5869Y-2.2927
X0.5869Y-3.1391
X0.6105Y-2.3183
X0.75Y-2.6375
X0.75Y-1.0239
X0.8471Y-2.6375
X0.8481Y-2.1136
X0.8878Y-0.8891
X0.9375Y-0.0864
X1.0655Y0.0484
X1.0719Y-2.3439
X1.1188Y-2.3439
X1.125Y-1.7739
X1.125Y-4.0239
X1.1657Y-2.3439
X1.2125Y-2.3439
X1.2431Y-3.8891
X1.2594Y-2.3439
X1.2628Y-1.6391
X1.3063Y-2.3439
X1.3125Y-2.5239
X1.3532Y-2.3439
X1.4006Y-2.1391
X1.4242Y-2.1647
X1.4478Y-2.1903
X1.5Y-1.0239
X1.5881Y-2.2927
X1.6117Y-2.2671
X1.6378Y-0.8891
X1.6875Y-0.0864
X1.6875Y-3.2739
X1.8155Y0.0484
X1.8253Y-3.1391
X1.875Y-1.7739
X2.0128Y-1.6391
X2.0625Y-2.5239
X2.0625Y-4.0239
X2.1506Y-2.1903
X2.1742Y-2.1647
X2.1806Y-3.8891
X2.1845Y-2.2927
X2.1978Y-2.1391
X2.2082Y-2.3183
X2.25Y-1.0239
X2.2633Y-1.9856
X2.2633Y-2.1136
X2.3863Y-1.96
X2.3863Y-2.088
X2.3878Y-0.8891
X2.3906Y-2.6375
X2.4375Y-0.0864
X2.4375Y-3.2739
X2.4844Y-2.6375
X2.5655Y0.0484
X2.5753Y-3.1391
X2.625Y-1.7739
X2.7125Y-2.3439
X2.7594Y-2.3439
X2.7628Y-1.6391
X2.8063Y-2.3439
X2.8125Y-2.5239
X2.8532Y-2.3439
X2.9006Y-2.1391
X2.9242Y-2.1647
X2.9478Y-2.1903
X3.0Y-1.0239
X3.0881Y-2.2927
X3.1378Y-0.8891
X3.1875Y-0.0864
X3.1875Y-3.2739
X3.2812Y-2.667
X3.3155Y0.0484
X3.3253Y-3.1391
X3.375Y-1.7739
X3.5128Y-1.6391
X3.5625Y-2.5239
X3.6506Y-2.1903
X3.6742Y-2.1647
X3.6845Y-2.2927
X3.6978Y-2.1391
X3.75Y-1.0239
X3.7633Y-1.9856
X3.7633Y-2.1136
X3.8863Y-1.96
X3.8863Y-2.088
X3.8878Y-0.8891
X3.8906Y-2.6375
X3.9375Y-3.2739
X3.9844Y-2.6375
X4.0753Y-3.1391
X4.125Y-0.0864
X4.125Y-1.7739
X4.2125Y-2.3439
X4.253Y0.0484
X4.2594Y-2.3439
X4.2628Y-1.6391
X4.3063Y-2.3439
X4.3125Y-2.5239
X4.3532Y-2.3439
X4.4006Y-2.1391
X4.4242Y-2.1647
X4.4478Y-2.1903
X4.5Y-1.0239
X4.5881Y-2.2927
X4.6378Y-0.8891
X4.6875Y-3.2739
X4.8253Y-3.1391
X4.875Y-0.0864
X4.875Y-1.7739
X5.003Y0.0484
X5.0128Y-1.6391
X5.0625Y-2.5239
X5.1506Y-2.1903
X5.1742Y-2.1647
X5.1845Y-2.2927
X5.1978Y-2.1391
X5.2082Y-2.3183
X5.25Y-1.0239
X5.25Y-4.0239
X5.2633Y-1.9856
X5.2633Y-2.1136
X5.3681Y-3.8891
X5.3863Y-1.96
X5.3863Y-2.088
X5.3878Y-0.8891
X5.3906Y-2.6375
X5.4375Y-3.2739
X5.4844Y-2.6375
X5.4887Y-2.1136
X5.5753Y-3.1391
X5.625Y-0.0864
X5.625Y-1.7739
X5.7125Y-2.3439
X5.753Y0.0484
X5.7594Y-2.3439
X5.7628Y-1.6391
X5.8063Y-2.3439
X5.8125Y-2.5239
X5.8532Y-2.3439
X5.9006Y-2.1391
X5.9242Y-2.1647
X5.9478Y-2.1903
X6.0Y-1.0239
X6.0881Y-2.2927
X6.1378Y-0.8891
X6.1875Y-3.2739
X6.2812Y-2.7221
X6.3253Y-3.1391
X6.375Y-0.0864
X6.375Y-1.7739
X6.503Y0.0484
X6.5128Y-1.6391
X6.5625Y-2.5239
X6.6506Y-2.1903
X6.6742Y-2.1647
X6.6845Y-2.2927
X6.6978Y-2.1391
X6.75Y-1.0239
X6.7633Y-1.9856
X6.7633Y-2.1136
X6.8863Y-1.96
X6.8863Y-2.088
X6.8878Y-0.8891
X6.8906Y-2.6375
X6.9375Y-3.2739
X6.9844Y-2.6375
X7.0069Y-1.6391
X7.0753Y-3.1391
X7.125Y-1.7739
X7.2125Y-2.3439
X7.2594Y-2.3439
X7.2628Y-1.6391
X7.3063Y-2.3439
X7.3125Y-0.0864
X7.3125Y-2.5239
X7.3532Y-2.3439
X7.4006Y-2.1391
X7.4242Y-2.1647
X7.4405Y0.0484
X7.4478Y-2.1903
X7.5Y-1.0239
X7.5881Y-2.2927
X7.6378Y-0.8891
X7.6875Y-3.2739
X7.7812Y-2.667
X7.8253Y-3.1391
X7.875Y-1.7739
X8.0128Y-1.6391
X8.0625Y-0.0864
X8.0625Y-2.5239
X8.1506Y-2.1903
X8.1742Y-2.1647
X8.1845Y-2.2927
X8.1905Y0.0484
X8.1978Y-2.1391
X8.2082Y-2.3183
X8.25Y-1.0239
X8.2633Y-1.9856
X8.2633Y-2.1136
X8.3863Y-1.96
X8.3863Y-2.088
X8.3878Y-0.8891
X8.4375Y-3.2739
X8.4375Y-4.0239
X8.4497Y-2.6375
X8.4887Y-2.1136
X8.5434Y-2.6375
X8.5753Y-3.1391
X8.5753Y-3.8891
X8.625Y-1.7739
X8.7125Y-2.3439
X8.7594Y-2.3439
X8.7628Y-1.6391
X8.8063Y-2.3439
X8.8125Y-0.0864
X8.8125Y-2.5239
X8.8532Y-2.3439
X8.9006Y-2.1391
X8.9242Y-2.1647
X8.9405Y0.0484
X8.9478Y-2.1903
X9.0Y-1.0239
X9.0881Y-2.2927
X9.1378Y-0.8891
X9.1406Y-2.6375
X9.1406Y-2.6953
X9.2087Y-2.9765
X9.2344Y-2.6375
X9.2598Y-2.9381
X9.2598Y-2.9765
X9.2813Y-2.6953
X9.375Y-1.7739
X9.375Y-4.0239
X9.4902Y-2.9381
X9.4902Y-2.9765
X9.5128Y-1.6391
X9.5128Y-3.8891
X9.5413Y-2.9765
X9.5625Y-0.0864
X9.6905Y0.0484
X9.732Y-2.2458
X9.7557Y-2.2714
X9.7601Y-2.1435
X9.7837Y-2.1179
X9.8073Y-2.0923
X9.8438Y-3.2739
X9.857Y-1.9505
X9.857Y-2.0667
X9.9801Y-1.9269
X9.9801Y-2.0411
X9.9815Y-3.1391
X10.025Y-2.3439
X10.0312Y-2.5239
X10.0719Y-2.3439
X10.0806Y-1.9344
X10.1188Y-2.3439
X10.125Y-1.0239
X10.1336Y-2.5686
X10.1657Y-2.3439
X10.169Y-2.3891
X10.1753Y-3.358
X10.2125Y-2.3439
X10.2594Y-2.3439
X10.2628Y-0.8891
X10.3068Y-2.2714
X10.3125Y-1.7739
X10.3125Y-4.0239
X10.4503Y-1.6391
X10.4503Y-3.8891
X10.5Y-0.0864
X10.628Y0.0484
X10.6297Y-2.2173
X10.6533Y-2.2409
X10.6769Y-2.2645
X10.8463Y-2.0112
X10.8463Y-2.1329
X10.8679Y-2.0368
X10.8679Y-2.1545
X10.8896Y-2.0624
X10.8896Y-2.1762
X10.9112Y-2.088
X10.9112Y-2.1978
X10.952Y-0.6898
X10.9855Y-0.6898
X11.0667Y-2.4774
X11.248Y-2.5561
X11.2636Y-2.6742
X11.2734Y-2.625
X11.2912Y-3.001
X11.3158Y-2.2451
X11.3305Y-3.001
X11.3492Y-2.2451
X11.3699Y-3.001
X11.4093Y-3.001
X11.4211Y-2.4183
X11.4375Y-0.0864
X11.4375Y-1.0239
X11.4375Y-1.7739
X11.4375Y-4.0239
X11.4689Y-2.8205
X11.4998Y-2.7116
X11.5234Y-2.6742
X11.5655Y0.0484
X11.5655Y-0.8891
X11.5655Y-1.6391
X11.5655Y-2.3183
X11.5753Y-3.8891
X11.6809Y-2.6959
X11.7131Y-2.2927
X11.7282Y-2.6152
X11.7282Y-2.7982
X11.7367Y-2.2671
X11.7557Y-2.6447
X11.7656Y-2.2266
X11.7656Y-2.3438
X11.7675Y-2.7037
X11.799Y-2.8455
X11.8594Y-2.2266
X11.8594Y-2.3438
X11.9034Y-2.6447
X11.9723Y-2.94
X12.0234Y-2.8612
X12.1875Y-0.0864
X12.1875Y-1.0239
X12.1875Y-1.7739
X12.1875Y-3.2739
X12.1875Y-4.0239
X12.2195Y-2.7699
X12.2519Y-2.0112
X12.3155Y0.0484
X12.3155Y-0.8891
X12.3155Y-1.6391
X12.3253Y-3.1391
X12.3253Y-3.8891
X12.3647Y-2.088
X12.3883Y-1.9856
X12.3883Y-2.1136
X12.5034Y-2.1903
X12.5156Y-2.5561
X12.5271Y-2.2159
X12.5507Y-2.2415
X12.5743Y-2.1647
X12.5979Y-2.1391
X12.8638Y-2.2927
X12.8874Y-2.2671
X12.911Y-2.2415
X12.9347Y-2.2159
X12.9375Y-0.0864
X12.9375Y-1.0239
X12.9375Y-1.7739
X12.9375Y-4.0239
X13.0359Y-0.8694
X13.0359Y-1.6194
X13.0359Y-2.1903
X13.0359Y-3.8497
X13.0399Y-4.0686
X13.0655Y0.0484
X13.0832Y-1.108
X13.0832Y-1.858
X13.1422Y-3.4682
X13.1973Y-0.1705
X13.1973Y-2.5561
T3
X-0.1727Y0.2328
X-0.1727Y0.1147
X-0.1727Y-0.3578
X-0.1727Y-0.4759
X-0.1727Y-0.594
X-0.1727Y-0.7121
X-0.1727Y-0.8302
X-0.1727Y-1.0664
X-0.1727Y-1.1845
X-0.1727Y-1.3026
X-0.1727Y-1.4208
X-0.1727Y-1.5389
X-0.1727Y-1.657
X-0.1727Y-1.7751
X-0.1727Y-1.8932
X-0.1727Y-2.2475
X-0.1727Y-2.3656
X-0.1727Y-2.4837
X-0.1727Y-2.6019
X-0.1727Y-2.72
X-0.1727Y-2.8381
X-0.1727Y-2.9562
X-0.1727Y-3.0743
X-0.1727Y-3.1924
X-0.1727Y-3.3105
X-0.1727Y-3.4286
X-0.1727Y-3.5467
X-0.1727Y-3.6648
X-0.1727Y-3.783
X-0.1727Y-3.9011
X-0.1727Y-4.0192
X-0.1727Y-4.1373
X-0.0546Y0.2328
X-0.0546Y-0.0034
X-0.0546Y-0.3578
X-0.0546Y-0.4759
X-0.0546Y-0.594
X-0.0546Y-0.7121
X-0.0546Y-0.9483
X-0.0546Y-1.3026
X-0.0546Y-1.4208
X-0.0546Y-1.5389
X-0.0546Y-1.7751
X-0.0546Y-2.72
X-0.0546Y-3.0743
X-0.0546Y-3.1924
X-0.0546Y-3.3105
X-0.0546Y-3.6648
X-0.0546Y-3.783
X-0.0546Y-4.0192
X-0.0546Y-4.1373
X0.0635Y0.2328
X0.0635Y-0.3578
X0.0635Y-0.4759
X0.0635Y-0.594
X0.0635Y-0.7121
X0.0635Y-1.3026
X0.0635Y-1.4208
X0.0635Y-1.5389
X0.0635Y-2.6019
X0.0635Y-2.72
X0.0635Y-2.8381
X0.0635Y-3.0743
X0.0635Y-3.1924
X0.0635Y-3.3105
X0.0635Y-3.6648
X0.0635Y-3.783
X0.0635Y-4.0192
X0.0694Y-1.6391
X0.1631Y-2.3891
X0.1816Y0.2328
X0.1816Y-0.2397
X0.1816Y-0.3578
X0.1816Y-0.4759
X0.1816Y-0.594
X0.1816Y-0.7121
X0.1816Y-1.0664
X0.1816Y-1.3026
X0.1816Y-1.4208
X0.1816Y-1.5389
X0.1816Y-2.0113
X0.1816Y-2.1294
X0.1816Y-2.2475
X0.1816Y-3.0743
X0.1816Y-3.1924
X0.1816Y-3.3105
X0.1816Y-3.4286
X0.1816Y-3.5467
X0.1816Y-3.6648
X0.1816Y-3.783
X0.2997Y0.2328
X0.2997Y-1.5389
X0.2997Y-2.0113
X0.2997Y-2.1294
X0.2997Y-2.2475
X0.2997Y-2.8381
X0.2997Y-2.9562
X0.2997Y-3.5467
X0.2997Y-3.6648
X0.2997Y-3.783
X0.2997Y-4.0192
X0.3506Y-3.1391
X0.4178Y-0.0034
X0.4178Y-0.2397
X0.4178Y-0.594
X0.4178Y-0.7121
X0.4178Y-0.9483
X0.4178Y-1.0664
X0.4178Y-1.1845
X0.4178Y-1.3026
X0.4178Y-1.5389
X0.4178Y-2.0113
X0.4178Y-2.1294
X0.4178Y-2.3656
X0.4178Y-2.4837
X0.4178Y-2.72
X0.4178Y-2.8381
X0.4178Y-2.9562
X0.4178Y-3.1924
X0.4178Y-3.5467
X0.4178Y-3.6648
X0.4178Y-4.0192
X0.536Y-0.0034
X0.536Y-0.2397
X0.536Y-0.594
X0.536Y-0.7121
X0.536Y-1.0664
X0.536Y-1.1845
X0.536Y-1.3026
X0.536Y-2.3656
X0.536Y-2.4837
X0.536Y-2.6019
X0.536Y-2.8381
X0.536Y-2.9562
X0.536Y-3.5467
X0.6541Y0.2328
X0.6541Y-0.0034
X0.6541Y-0.2397
X0.6541Y-0.3578
X0.6541Y-0.4759
X0.6541Y-0.594
X0.6541Y-0.7121
X0.6541Y-1.3026
X0.6541Y-1.4208
X0.6541Y-1.5389
X0.6541Y-1.657
X0.6541Y-2.0113
X0.6541Y-2.4837
X0.6541Y-2.6019
X0.6541Y-2.8381
X0.6541Y-2.9562
X0.6541Y-3.4286
X0.6541Y-3.5467
X0.6541Y-3.6648
X0.75Y-1.2221
X0.75Y-1.8029
X0.7534Y-2.7221
X0.7534Y-3.3029
X0.7534Y-4.1907
X0.7722Y0.2328
X0.7722Y-0.3578
X0.7722Y-0.4759
X0.7722Y-0.594
X0.7722Y-0.7121
X0.7722Y-2.2475
X0.8471Y-2.7221
X0.8903Y-0.0034
X0.8903Y-0.3578
X0.8903Y-0.4759
X0.8903Y-0.594
X0.8903Y-0.7121
X0.8903Y-1.0664
X0.8903Y-1.3026
X0.8903Y-1.4208
X0.8903Y-1.5389
X0.8903Y-2.4837
X0.8903Y-3.1924
X0.8903Y-3.6648
X0.8903Y-3.783
X0.8903Y-4.0192
X0.8903Y-4.1373
X1.0084Y-0.3578
X1.0084Y-0.4759
X1.0084Y-0.594
X1.0084Y-0.7121
X1.0084Y-1.0664
X1.0084Y-1.1845
X1.0084Y-1.3026
X1.0084Y-1.4208
X1.0084Y-1.5389
X1.0084Y-2.4837
X1.0084Y-2.6019
X1.0084Y-2.8381
X1.0084Y-3.1924
X1.0084Y-3.6648
X1.0084Y-3.783
X1.0084Y-4.0192
X1.1265Y0.2328
X1.1265Y-0.2397
X1.1265Y-0.3578
X1.1265Y-0.4759
X1.1265Y-0.594
X1.1265Y-0.7121
X1.1265Y-0.9483
X1.1265Y-1.0664
X1.1265Y-1.1845
X1.1265Y-1.5389
X1.1265Y-1.657
X1.1265Y-2.6019
X1.1265Y-2.8381
X1.1265Y-2.9562
X1.1265Y-3.1924
X1.1265Y-3.4286
X1.1265Y-3.5467
X1.1265Y-3.6648
X1.1265Y-3.783
X1.1265Y-3.9011
X1.1944Y-2.3891
X1.1944Y-3.08
X1.1944Y-3.83
X1.2188Y-0.1154
X1.2188Y-1.2221
X1.2446Y-0.0034
X1.2446Y-1.3026
X1.2446Y-1.5389
X1.2446Y-2.4837
X1.2446Y-2.8381
X1.2446Y-2.9562
X1.2446Y-4.0192
X1.3125Y0.1075
X1.3125Y-0.83
X1.3627Y-0.0034
X1.3627Y-0.2397
X1.3627Y-0.3578
X1.3627Y-0.4759
X1.3627Y-0.594
X1.3627Y-0.7121
X1.3627Y-0.9483
X1.3627Y-1.0664
X1.3627Y-1.3026
X1.3627Y-1.5389
X1.3627Y-2.4837
X1.3627Y-2.8381
X1.3627Y-3.1924
X1.3627Y-3.4286
X1.3627Y-3.5467
X1.3627Y-3.6648
X1.3627Y-3.783
X1.3627Y-4.0192
X1.4808Y0.2328
X1.4808Y-0.3578
X1.4808Y-0.4759
X1.4808Y-0.594
X1.4808Y-0.7121
X1.4808Y-1.3026
X1.4808Y-1.4208
X1.4808Y-1.5389
X1.4808Y-1.657
X1.4808Y-2.1294
X1.4808Y-2.3656
X1.4808Y-2.9562
X1.4808Y-3.5467
X1.4808Y-3.6648
X1.4808Y-3.783
X1.4808Y-3.9011
X1.4808Y-4.0192
X1.5989Y0.2328
X1.5989Y-0.3578
X1.5989Y-0.4759
X1.5989Y-0.594
X1.5989Y-0.7121
X1.5989Y-1.3026
X1.5989Y-1.4208
X1.5989Y-1.5389
X1.5989Y-1.657
X1.5989Y-3.5467
X1.5989Y-3.6648
X1.5989Y-3.783
X1.5989Y-3.9011
X1.5989Y-4.0192
X1.6172Y-1.8029
X1.7171Y0.2328
X1.7171Y-0.0034
X1.7171Y-0.3578
X1.7171Y-0.4759
X1.7171Y-0.594
X1.7171Y-0.7121
X1.7171Y-1.0664
X1.7171Y-1.3026
X1.7171Y-1.4208
X1.7171Y-1.5389
X1.7171Y-2.3656
X1.7171Y-2.4837
X1.7171Y-2.6019
X1.7171Y-2.8381
X1.7171Y-2.9562
X1.7171Y-3.5467
X1.7171Y-3.6648
X1.7171Y-3.783
X1.7171Y-3.9011
X1.7171Y-4.0192
X1.7812Y-2.7221
X1.8352Y0.2328
X1.8352Y-1.5389
X1.8352Y-2.1294
X1.8352Y-2.2475
X1.8352Y-2.3656
X1.8352Y-2.6019
X1.8352Y-2.8381
X1.8352Y-2.9562
X1.8352Y-3.5467
X1.8352Y-3.6648
X1.8352Y-3.783
X1.8352Y-4.0192
X1.9444Y-2.3891
X1.9444Y-3.08
X1.9533Y0.2328
X1.9533Y-0.0034
X1.9533Y-0.2397
X1.9533Y-0.3578
X1.9533Y-0.4759
X1.9533Y-0.594
X1.9533Y-0.7121
X1.9533Y-0.9483
X1.9533Y-1.0664
X1.9533Y-1.1845
X1.9533Y-1.3026
X1.9533Y-1.5389
X1.9533Y-2.1294
X1.9533Y-2.2475
X1.9533Y-3.1924
X1.9533Y-3.4286
X1.9533Y-3.5467
X1.9533Y-3.6648
X1.9533Y-3.783
X1.9533Y-4.0192
X2.0714Y0.2328
X2.0714Y-0.0034
X2.0714Y-0.2397
X2.0714Y-0.3578
X2.0714Y-0.4759
X2.0714Y-0.594
X2.0714Y-0.7121
X2.0714Y-1.0664
X2.0714Y-1.1845
X2.0714Y-1.3026
X2.0714Y-1.5389
X2.0714Y-2.1294
X2.0714Y-2.2475
X2.0714Y-2.8381
X2.0714Y-2.9562
X2.0714Y-3.1924
X2.0714Y-3.4286
X2.0714Y-3.5467
X2.0714Y-3.6648
X2.0714Y-3.783
X2.1895Y0.2328
X2.1895Y-0.2397
X2.1895Y-0.3578
X2.1895Y-0.4759
X2.1895Y-0.594
X2.1895Y-0.7121
X2.1895Y-0.9483
X2.1895Y-1.3026
X2.1895Y-2.8381
X2.1895Y-4.0192
X2.3076Y0.2328
X2.3076Y-0.3578
X2.3076Y-0.4759
X2.3076Y-0.594
X2.3076Y-0.7121
X2.3076Y-0.9483
X2.3076Y-1.3026
X2.3076Y-1.4208
X2.3076Y-1.5389
X2.3076Y-1.657
X2.3076Y-2.6019
X2.3076Y-2.72
X2.3076Y-2.9562
X2.3076Y-3.5467
X2.3076Y-3.6648
X2.3076Y-3.783
X2.3076Y-4.0192
X2.4257Y0.2328
X2.4257Y-0.0034
X2.4257Y-0.3578
X2.4257Y-0.4759
X2.4257Y-0.594
X2.4257Y-0.7121
X2.4257Y-1.0664
X2.4257Y-1.3026
X2.4257Y-1.4208
X2.4257Y-1.5389
X2.4257Y-2.2475
X2.4257Y-3.5467
X2.4257Y-3.6648
X2.4257Y-3.783
X2.4257Y-3.9011
X2.4257Y-4.0192
X2.5438Y0.2328
X2.5438Y-1.5389
X2.5438Y-2.4837
X2.5438Y-2.6019
X2.5438Y-2.72
X2.5438Y-2.8381
X2.5438Y-3.5467
X2.5438Y-3.6648
X2.5438Y-3.783
X2.5438Y-3.9011
X2.5438Y-4.0192
X2.6619Y0.2328
X2.6619Y-0.2397
X2.6619Y-0.3578
X2.6619Y-0.4759
X2.6619Y-0.594
X2.6619Y-0.7121
X2.6619Y-0.9483
X2.6619Y-1.0664
X2.6619Y-1.1845
X2.6619Y-1.5389
X2.6619Y-2.2475
X2.6619Y-2.72
X2.6619Y-2.8381
X2.6619Y-2.9562
X2.6619Y-3.4286
X2.6619Y-3.5467
X2.6619Y-3.6648
X2.6619Y-3.783
X2.6619Y-3.9011
X2.6619Y-4.0192
X2.6944Y-2.3891
X2.6944Y-3.08
X2.7801Y0.2328
X2.7801Y-0.0034
X2.7801Y-0.2397
X2.7801Y-0.3578
X2.7801Y-0.4759
X2.7801Y-0.594
X2.7801Y-0.7121
X2.7801Y-1.0664
X2.7801Y-1.1845
X2.7801Y-1.3026
X2.7801Y-1.5389
X2.7801Y-2.2475
X2.7801Y-2.8381
X2.7801Y-2.9562
X2.7801Y-3.1924
X2.7801Y-3.4286
X2.7801Y-3.5467
X2.7801Y-3.6648
X2.7801Y-3.783
X2.7801Y-3.9011
X2.7801Y-4.0192
X2.8982Y0.2328
X2.8982Y-0.0034
X2.8982Y-0.2397
X2.8982Y-0.3578
X2.8982Y-0.4759
X2.8982Y-0.594
X2.8982Y-0.7121
X2.8982Y-1.3026
X2.8982Y-2.2475
X2.8982Y-2.4837
X2.8982Y-2.8381
X2.8982Y-2.9562
X2.8982Y-3.1924
X2.8982Y-3.4286
X2.8982Y-3.5467
X2.8982Y-3.6648
X2.8982Y-3.783
X2.8982Y-3.9011
X2.8982Y-4.0192
X3.0163Y0.2328
X3.0163Y-0.3578
X3.0163Y-0.4759
X3.0163Y-0.594
X3.0163Y-0.7121
X3.0163Y-1.4208
X3.0163Y-1.5389
X3.0163Y-1.657
X3.0163Y-2.1294
X3.0163Y-2.2475
X3.0163Y-2.3656
X3.0163Y-2.72
X3.0163Y-2.8381
X3.0163Y-2.9562
X3.0163Y-3.783
X3.0163Y-3.9011
X3.0163Y-4.0192
X3.1172Y-1.8029
X3.1344Y0.2328
X3.1344Y-0.0034
X3.1344Y-0.3578
X3.1344Y-0.4759
X3.1344Y-0.594
X3.1344Y-0.7121
X3.1344Y-0.9483
X3.1344Y-1.0664
X3.1344Y-1.5389
X3.1344Y-2.2475
X3.1344Y-2.3656
X3.1344Y-2.4837
X3.1344Y-2.6019
X3.1344Y-2.72
X3.1344Y-3.1924
X3.1344Y-3.5467
X3.1344Y-3.6648
X3.1344Y-3.783
X3.1344Y-3.9011
X3.1344Y-4.0192
X3.2525Y0.2328
X3.2525Y-0.3578
X3.2525Y-0.4759
X3.2525Y-0.594
X3.2525Y-0.7121
X3.2525Y-1.0664
X3.2525Y-1.1845
X3.2525Y-1.3026
X3.2525Y-1.4208
X3.2525Y-1.5389
X3.2525Y-2.1294
X3.2525Y-2.9562
X3.2525Y-3.5467
X3.2525Y-3.6648
X3.2525Y-3.783
X3.2525Y-3.9011
X3.2525Y-4.0192
X3.3706Y-0.2397
X3.3706Y-0.3578
X3.3706Y-0.4759
X3.3706Y-0.594
X3.3706Y-0.7121
X3.3706Y-1.5389
X3.3706Y-2.1294
X3.3706Y-2.2475
X3.3706Y-2.3656
X3.3706Y-2.6019
X3.3706Y-2.9562
X3.3706Y-3.4286
X3.3706Y-3.5467
X3.3706Y-3.6648
X3.3706Y-3.783
X3.3706Y-3.9011
X3.3706Y-4.0192
X3.375Y-0.83
X3.4444Y-2.3891
X3.4444Y-3.08
X3.4688Y-0.1154
X3.4688Y-1.2221
X3.4887Y-0.0034
X3.4887Y-1.5389
X3.4887Y-2.1294
X3.4887Y-2.2475
X3.4887Y-2.4837
X3.4887Y-2.8381
X3.4887Y-2.9562
X3.4887Y-3.1924
X3.4887Y-3.4286
X3.4887Y-3.5467
X3.4887Y-3.6648
X3.4887Y-3.783
X3.4887Y-3.9011
X3.4887Y-4.0192
X3.6068Y-0.0034
X3.6068Y-0.2397
X3.6068Y-0.594
X3.6068Y-0.7121
X3.6068Y-1.0664
X3.6068Y-1.5389
X3.6068Y-2.1294
X3.6068Y-2.2475
X3.6068Y-2.8381
X3.6068Y-2.9562
X3.6068Y-3.1924
X3.6068Y-3.4286
X3.6068Y-3.5467
X3.6068Y-3.6648
X3.6068Y-3.783
X3.6068Y-3.9011
X3.6068Y-4.0192
X3.7249Y-0.0034
X3.7249Y-0.2397
X3.7249Y-0.594
X3.7249Y-0.7121
X3.7249Y-2.3656
X3.7249Y-2.8381
X3.7249Y-2.9562
X3.7249Y-3.5467
X3.7249Y-3.6648
X3.7249Y-3.783
X3.7249Y-3.9011
X3.7249Y-4.0192
X3.75Y-1.58
X3.843Y0.2328
X3.843Y-0.0034
X3.843Y-0.2397
X3.843Y-0.3578
X3.843Y-0.4759
X3.843Y-0.594
X3.843Y-0.7121
X3.843Y-1.3026
X3.843Y-1.4208
X3.843Y-1.5389
X3.843Y-1.657
X3.843Y-2.4837
X3.843Y-3.5467
X3.843Y-3.6648
X3.843Y-3.783
X3.843Y-3.9011
X3.843Y-4.0192
X3.9612Y0.2328
X3.9612Y-0.3578
X3.9612Y-0.4759
X3.9612Y-0.594
X3.9612Y-0.7121
X3.9612Y-1.0664
X3.9612Y-1.3026
X3.9612Y-1.4208
X3.9612Y-1.5389
X3.9612Y-2.1294
X3.9612Y-2.2475
X3.9612Y-3.5467
X3.9612Y-3.6648
X3.9612Y-3.783
X3.9612Y-3.9011
X3.9612Y-4.0192
X4.0793Y0.2328
X4.0793Y-0.0034
X4.0793Y-0.3578
X4.0793Y-1.5389
X4.0793Y-2.6019
X4.0793Y-2.72
X4.0793Y-3.5467
X4.0793Y-3.6648
X4.0793Y-3.783
X4.0793Y-3.9011
X4.0793Y-4.0192
X4.1944Y-2.3891
X4.1944Y-3.08
X4.1974Y0.2328
X4.1974Y-0.4759
X4.1974Y-0.594
X4.1974Y-0.7121
X4.1974Y-0.9483
X4.1974Y-1.0664
X4.1974Y-1.1845
X4.1974Y-1.3026
X4.1974Y-1.5389
X4.1974Y-2.2475
X4.1974Y-3.4286
X4.1974Y-3.5467
X4.1974Y-3.6648
X4.1974Y-3.783
X4.1974Y-3.9011
X4.1974Y-4.0192
X4.3155Y-0.2397
X4.3155Y-0.3578
X4.3155Y-0.4759
X4.3155Y-0.594
X4.3155Y-0.7121
X4.3155Y-1.0664
X4.3155Y-1.1845
X4.3155Y-1.3026
X4.3155Y-1.5389
X4.3155Y-2.2475
X4.3155Y-2.8381
X4.3155Y-3.1924
X4.3155Y-3.4286
X4.3155Y-3.5467
X4.3155Y-3.6648
X4.3155Y-3.783
X4.3155Y-3.9011
X4.3155Y-4.0192
X4.4336Y0.2328
X4.4336Y-0.0034
X4.4336Y-0.2397
X4.4336Y-0.3578
X4.4336Y-0.4759
X4.4336Y-0.594
X4.4336Y-0.7121
X4.4336Y-1.3026
X4.4336Y-2.2475
X4.4336Y-2.4837
X4.4336Y-2.72
X4.4336Y-2.8381
X4.4336Y-3.4286
X4.4336Y-3.5467
X4.4336Y-3.6648
X4.4336Y-3.783
X4.4336Y-3.9011
X4.4336Y-4.0192
X4.5517Y0.2328
X4.5517Y-0.0034
X4.5517Y-0.2397
X4.5517Y-0.3578
X4.5517Y-0.4759
X4.5517Y-0.594
X4.5517Y-0.7121
X4.5517Y-0.9483
X4.5517Y-1.3026
X4.5517Y-1.4208
X4.5517Y-1.5389
X4.5517Y-1.657
X4.5517Y-2.1294
X4.5517Y-2.3656
X4.5517Y-2.6019
X4.5517Y-2.8381
X4.5517Y-3.1924
X4.5517Y-3.5467
X4.5517Y-3.6648
X4.5517Y-3.783
X4.5517Y-3.9011
X4.5517Y-4.0192
X4.6172Y-1.8029
X4.6698Y0.2328
X4.6698Y-0.3578
X4.6698Y-0.4759
X4.6698Y-0.594
X4.6698Y-0.7121
X4.6698Y-1.0664
X4.6698Y-1.3026
X4.6698Y-1.4208
X4.6698Y-1.5389
X4.6698Y-2.2475
X4.6698Y-2.3656
X4.6698Y-2.4837
X4.6698Y-2.6019
X4.6698Y-2.8381
X4.6698Y-3.5467
X4.6698Y-3.6648
X4.6698Y-3.783
X4.6698Y-3.9011
X4.6698Y-4.0192
X4.7812Y-2.7221
X4.7879Y0.2328
X4.7879Y-0.3578
X4.7879Y-1.5389
X4.7879Y-2.1294
X4.7879Y-2.8381
X4.7879Y-3.5467
X4.7879Y-3.6648
X4.7879Y-3.783
X4.7879Y-3.9011
X4.7879Y-4.0192
X4.906Y0.2328
X4.906Y-0.0034
X4.906Y-0.4759
X4.906Y-0.594
X4.906Y-0.7121
X4.906Y-0.9483
X4.906Y-1.0664
X4.906Y-1.1845
X4.906Y-1.5389
X4.906Y-2.1294
X4.906Y-2.2475
X4.906Y-2.8381
X4.906Y-3.4286
X4.906Y-3.5467
X4.906Y-3.6648
X4.906Y-3.783
X4.906Y-3.9011
X4.906Y-4.0192
X4.9444Y-2.3891
X5.0241Y0.2328
X5.0241Y-0.3578
X5.0241Y-0.4759
X5.0241Y-0.594
X5.0241Y-0.7121
X5.0241Y-1.0664
X5.0241Y-1.1845
X5.0241Y-1.3026
X5.0241Y-1.5389
X5.0241Y-2.1294
X5.0241Y-2.2475
X5.0241Y-3.1924
X5.0241Y-3.4286
X5.0241Y-3.5467
X5.0241Y-3.6648
X5.0241Y-4.0192
X5.0625Y-3.08
X5.1319Y-3.8891
X5.1423Y0.2328
X5.1423Y-0.0034
X5.1423Y-0.2397
X5.1423Y-0.3578
X5.1423Y-0.4759
X5.1423Y-0.594
X5.1423Y-0.7121
X5.1423Y-1.0664
X5.1423Y-1.3026
X5.1423Y-1.5389
X5.1423Y-2.4837
X5.1423Y-2.8381
X5.1423Y-3.783
X5.1423Y-4.0192
X5.2604Y0.2328
X5.2604Y-0.0034
X5.2604Y-0.2397
X5.2604Y-0.3578
X5.2604Y-0.4759
X5.2604Y-0.594
X5.2604Y-0.7121
X5.2604Y-1.3026
X5.2604Y-1.4208
X5.2604Y-1.5389
X5.2604Y-1.657
X5.2604Y-2.3656
X5.2604Y-3.5467
X5.2604Y-3.6648
X5.3785Y0.2328
X5.3785Y-0.2397
X5.3785Y-0.3578
X5.3785Y-0.4759
X5.3785Y-0.594
X5.3785Y-0.7121
X5.3785Y-1.0664
X5.3785Y-1.3026
X5.3785Y-1.4208
X5.3785Y-1.5389
X5.3785Y-2.2475
X5.3785Y-3.1924
X5.3785Y-3.5467
X5.3785Y-3.6648
X5.3785Y-3.783
X5.3785Y-4.0192
X5.4966Y0.2328
X5.4966Y-0.3578
X5.4966Y-0.4759
X5.4966Y-0.594
X5.4966Y-0.7121
X5.4966Y-1.0664
X5.4966Y-1.1845
X5.4966Y-1.3026
X5.4966Y-1.4208
X5.4966Y-1.5389
X5.4966Y-2.2475
X5.4966Y-2.3656
X5.4966Y-2.4837
X5.4966Y-2.72
X5.4966Y-3.1924
X5.4966Y-3.5467
X5.4966Y-3.6648
X5.4966Y-3.783
X5.4966Y-4.0192
X5.6147Y0.2328
X5.6147Y-0.0034
X5.6147Y-0.3578
X5.6147Y-0.594
X5.6147Y-0.7121
X5.6147Y-0.9483
X5.6147Y-1.0664
X5.6147Y-1.1845
X5.6147Y-1.5389
X5.6147Y-2.2475
X5.6147Y-2.6019
X5.6147Y-2.72
X5.6147Y-2.8381
X5.6147Y-3.4286
X5.6147Y-3.5467
X5.6147Y-3.6648
X5.6147Y-3.783
X5.6147Y-3.9011
X5.6944Y-2.3891
X5.6944Y-3.08
X5.7328Y0.2328
X5.7328Y-0.3578
X5.7328Y-0.4759
X5.7328Y-0.594
X5.7328Y-0.7121
X5.7328Y-0.9483
X5.7328Y-1.0664
X5.7328Y-1.1845
X5.7328Y-1.3026
X5.7328Y-1.5389
X5.7328Y-2.2475
X5.7328Y-2.4837
X5.7328Y-2.8381
X5.7328Y-3.1924
X5.7328Y-3.4286
X5.7328Y-3.5467
X5.7328Y-3.6648
X5.7328Y-3.783
X5.7328Y-3.9011
X5.8509Y0.2328
X5.8509Y-0.2397
X5.8509Y-0.3578
X5.8509Y-0.4759
X5.8509Y-0.594
X5.8509Y-0.7121
X5.8509Y-1.0664
X5.8509Y-1.3026
X5.8509Y-1.5389
X5.8509Y-2.2475
X5.8509Y-2.8381
X5.8509Y-3.1924
X5.8509Y-3.4286
X5.8509Y-3.5467
X5.8509Y-3.6648
X5.8509Y-3.783
X5.8509Y-3.9011
X5.8509Y-4.0192
X5.8509Y-4.1373
X5.969Y0.2328
X5.969Y-0.0034
X5.969Y-0.2397
X5.969Y-0.3578
X5.969Y-0.4759
X5.969Y-0.594
X5.969Y-0.7121
X5.969Y-1.3026
X5.969Y-2.2475
X5.969Y-2.3656
X5.969Y-2.8381
X5.969Y-3.5467
X5.969Y-3.6648
X5.969Y-3.783
X5.969Y-3.9011
X5.969Y-4.0192
X5.969Y-4.1373
X6.0871Y0.2328
X6.0871Y-0.0034
X6.0871Y-0.2397
X6.0871Y-0.3578
X6.0871Y-0.4759
X6.0871Y-0.594
X6.0871Y-0.7121
X6.0871Y-1.3026
X6.0871Y-1.4208
X6.0871Y-1.5389
X6.0871Y-1.657
X6.0871Y-3.5467
X6.0871Y-3.6648
X6.0871Y-3.783
X6.0871Y-3.9011
X6.0871Y-4.0192
X6.0871Y-4.1373
X6.1172Y-1.8029
X6.2052Y0.2328
X6.2052Y-0.3578
X6.2052Y-0.4759
X6.2052Y-0.594
X6.2052Y-0.7121
X6.2052Y-1.0664
X6.2052Y-1.3026
X6.2052Y-1.4208
X6.2052Y-1.5389
X6.2052Y-2.2475
X6.2052Y-2.3656
X6.2052Y-2.4837
X6.2052Y-2.6019
X6.2052Y-2.8381
X6.2052Y-3.5467
X6.2052Y-3.6648
X6.2052Y-3.783
X6.2052Y-3.9011
X6.2052Y-4.0192
X6.2052Y-4.1373
X6.3234Y0.2328
X6.3234Y-0.0034
X6.3234Y-0.3578
X6.3234Y-1.5389
X6.3234Y-2.1294
X6.3234Y-2.2475
X6.3234Y-2.3656
X6.3234Y-2.6019
X6.3234Y-2.8381
X6.3234Y-3.1924
X6.3234Y-3.5467
X6.3234Y-3.6648
X6.3234Y-3.783
X6.3234Y-3.9011
X6.3234Y-4.0192
X6.3234Y-4.1373
X6.4415Y0.2328
X6.4415Y-0.4759
X6.4415Y-0.594
X6.4415Y-0.7121
X6.4415Y-0.9483
X6.4415Y-1.0664
X6.4415Y-1.1845
X6.4415Y-1.3026
X6.4415Y-1.5389
X6.4415Y-2.1294
X6.4415Y-2.2475
X6.4415Y-3.4286
X6.4415Y-3.5467
X6.4415Y-3.6648
X6.4415Y-3.783
X6.4415Y-3.9011
X6.4415Y-4.0192
X6.4415Y-4.1373
X6.4444Y-2.3891
X6.4444Y-3.08
X6.5596Y0.2328
X6.5596Y-0.2397
X6.5596Y-0.3578
X6.5596Y-0.4759
X6.5596Y-0.594
X6.5596Y-0.7121
X6.5596Y-1.0664
X6.5596Y-1.1845
X6.5596Y-1.3026
X6.5596Y-1.5389
X6.5596Y-2.1294
X6.5596Y-2.2475
X6.5596Y-2.8381
X6.5596Y-3.1924
X6.5596Y-3.4286
X6.5596Y-3.5467
X6.5596Y-3.6648
X6.5596Y-3.783
X6.5596Y-3.9011
X6.5596Y-4.0192
X6.5596Y-4.1373
X6.6777Y-0.0034
X6.6777Y-0.2397
X6.6777Y-0.3578
X6.6777Y-0.4759
X6.6777Y-0.594
X6.6777Y-0.7121
X6.6777Y-1.3026
X6.6777Y-2.8381
X6.6777Y-3.4286
X6.6777Y-3.5467
X6.6777Y-3.6648
X6.6777Y-3.783
X6.6777Y-3.9011
X6.6777Y-4.0192
X6.6777Y-4.1373
X6.7958Y-0.0034
X6.7958Y-0.2397
X6.7958Y-0.594
X6.7958Y-0.7121
X6.7958Y-0.9483
X6.7958Y-1.3026
X6.7958Y-1.4208
X6.7958Y-1.5389
X6.7958Y-1.657
X6.7958Y-2.72
X6.7958Y-2.8381
X6.7958Y-3.5467
X6.7958Y-3.6648
X6.7958Y-3.783
X6.7958Y-3.9011
X6.7958Y-4.0192
X6.7958Y-4.1373
X6.9139Y-0.0034
X6.9139Y-0.2397
X6.9139Y-0.594
X6.9139Y-0.7121
X6.9139Y-1.0664
X6.9139Y-1.3026
X6.9139Y-1.4208
X6.9139Y-1.5389
X6.9139Y-2.2475
X6.9139Y-3.5467
X6.9139Y-3.6648
X6.9139Y-3.783
X6.9139Y-3.9011
X6.9139Y-4.0192
X6.9139Y-4.1373
X7.0069Y-2.3832
X7.032Y0.2328
X7.032Y-0.0034
X7.032Y-0.2397
X7.032Y-0.3578
X7.032Y-0.4759
X7.032Y-0.594
X7.032Y-0.7121
X7.032Y-1.5389
X7.032Y-2.4837
X7.032Y-2.6019
X7.032Y-2.72
X7.032Y-3.5467
X7.032Y-3.6648
X7.032Y-3.783
X7.032Y-3.9011
X7.032Y-4.0192
X7.032Y-4.1373
X7.1501Y0.2328
X7.1501Y-0.3578
X7.1501Y-0.4759
X7.1501Y-0.7121
X7.1501Y-0.9483
X7.1501Y-1.0664
X7.1501Y-1.1845
X7.1501Y-1.5389
X7.1501Y-2.2475
X7.1501Y-2.6019
X7.1501Y-2.72
X7.1501Y-2.8381
X7.1501Y-3.4286
X7.1501Y-3.5467
X7.1501Y-3.6648
X7.1501Y-3.783
X7.1501Y-3.9011
X7.1501Y-4.0192
X7.1501Y-4.1373
X7.1944Y-2.3891
X7.1944Y-3.08
X7.2682Y0.2328
X7.2682Y-0.0034
X7.2682Y-0.3578
X7.2682Y-0.594
X7.2682Y-0.7121
X7.2682Y-1.0664
X7.2682Y-1.1845
X7.2682Y-1.3026
X7.2682Y-1.5389
X7.2682Y-2.2475
X7.2682Y-2.8381
X7.2682Y-3.1924
X7.2682Y-3.4286
X7.2682Y-3.5467
X7.2682Y-3.6648
X7.2682Y-3.783
X7.2682Y-3.9011
X7.2682Y-4.0192
X7.2682Y-4.1373
X7.3864Y0.2328
X7.3864Y-0.4759
X7.3864Y-0.594
X7.3864Y-0.7121
X7.3864Y-1.0664
X7.3864Y-1.3026
X7.3864Y-1.5389
X7.3864Y-2.2475
X7.3864Y-2.4837
X7.3864Y-2.8381
X7.3864Y-3.1924
X7.3864Y-3.4286
X7.3864Y-3.5467
X7.3864Y-3.6648
X7.3864Y-3.783
X7.3864Y-3.9011
X7.3864Y-4.0192
X7.5045Y0.2328
X7.5045Y-0.2397
X7.5045Y-0.3578
X7.5045Y-0.4759
X7.5045Y-0.594
X7.5045Y-0.7121
X7.5045Y-1.4208
X7.5045Y-1.5389
X7.5045Y-1.657
X7.5045Y-2.1294
X7.5045Y-2.2475
X7.5045Y-2.3656
X7.5045Y-2.72
X7.5045Y-2.8381
X7.5045Y-3.783
X7.5045Y-3.9011
X7.5045Y-4.0192
X7.6172Y-1.8029
X7.6226Y-0.0034
X7.6226Y-0.2397
X7.6226Y-0.3578
X7.6226Y-0.4759
X7.6226Y-0.594
X7.6226Y-0.7121
X7.6226Y-1.0664
X7.6226Y-1.5389
X7.6226Y-2.3656
X7.6226Y-2.4837
X7.6226Y-2.6019
X7.6226Y-2.72
X7.6226Y-3.5467
X7.6226Y-3.6648
X7.6226Y-3.783
X7.6226Y-3.9011
X7.6226Y-4.0192
X7.7407Y-0.0034
X7.7407Y-0.2397
X7.7407Y-0.3578
X7.7407Y-0.4759
X7.7407Y-0.594
X7.7407Y-0.7121
X7.7407Y-1.0664
X7.7407Y-1.1845
X7.7407Y-1.3026
X7.7407Y-1.4208
X7.7407Y-1.5389
X7.7407Y-1.657
X7.7407Y-2.1294
X7.7407Y-2.3656
X7.7407Y-2.4837
X7.7407Y-2.6019
X7.7407Y-3.1924
X7.7407Y-3.5467
X7.7407Y-3.6648
X7.7407Y-3.783
X7.7407Y-3.9011
X7.7407Y-4.0192
X7.8588Y0.2328
X7.8588Y-0.3578
X7.8588Y-0.4759
X7.8588Y-0.9483
X7.8588Y-1.0664
X7.8588Y-1.1845
X7.8588Y-1.5389
X7.8588Y-2.1294
X7.8588Y-2.2475
X7.8588Y-2.3656
X7.8588Y-2.6019
X7.8588Y-3.4286
X7.8588Y-3.5467
X7.8588Y-3.6648
X7.8588Y-3.783
X7.8588Y-3.9011
X7.8588Y-4.0192
X7.9444Y-2.3891
X7.9444Y-3.08
X7.9769Y0.2328
X7.9769Y-0.3578
X7.9769Y-0.594
X7.9769Y-0.7121
X7.9769Y-0.9483
X7.9769Y-1.0664
X7.9769Y-1.1845
X7.9769Y-1.3026
X7.9769Y-1.5389
X7.9769Y-2.1294
X7.9769Y-2.2475
X7.9769Y-2.4837
X7.9769Y-2.8381
X7.9769Y-3.1924
X7.9769Y-3.4286
X7.9769Y-3.5467
X7.9769Y-3.6648
X7.9769Y-3.783
X7.9769Y-3.9011
X7.9769Y-4.0192
X8.095Y0.2328
X8.095Y-0.0034
X8.095Y-0.4759
X8.095Y-0.594
X8.095Y-0.7121
X8.095Y-1.0664
X8.095Y-1.3026
X8.095Y-1.5389
X8.095Y-2.1294
X8.095Y-2.2475
X8.095Y-2.8381
X8.095Y-3.1924
X8.095Y-3.4286
X8.095Y-3.5467
X8.095Y-3.6648
X8.095Y-3.783
X8.095Y-3.9011
X8.095Y-4.0192
X8.2131Y0.2328
X8.2131Y-0.3578
X8.2131Y-0.4759
X8.2131Y-0.594
X8.2131Y-0.7121
X8.2131Y-0.9483
X8.2131Y-1.3026
X8.2131Y-2.8381
X8.2131Y-3.4286
X8.2131Y-3.5467
X8.2131Y-3.6648
X8.2131Y-3.783
X8.2131Y-4.0192
X8.3312Y0.2328
X8.3312Y-0.0034
X8.3312Y-0.2397
X8.3312Y-0.3578
X8.3312Y-0.4759
X8.3312Y-0.594
X8.3312Y-0.7121
X8.3312Y-1.3026
X8.3312Y-1.4208
X8.3312Y-1.5389
X8.3312Y-1.657
X8.3312Y-2.8381
X8.3312Y-3.5467
X8.3312Y-3.6648
X8.3312Y-3.783
X8.3312Y-4.0192
X8.4493Y0.2328
X8.4493Y-0.0034
X8.4493Y-0.2397
X8.4493Y-0.3578
X8.4493Y-0.4759
X8.4493Y-0.594
X8.4493Y-0.7121
X8.4493Y-1.0664
X8.4493Y-1.3026
X8.4493Y-1.4208
X8.4493Y-1.5389
X8.4493Y-2.2475
X8.4493Y-2.8381
X8.4493Y-3.5467
X8.4493Y-3.6648
X8.4493Y-3.783
X8.5675Y-0.2397
X8.5675Y-0.3578
X8.5675Y-0.4759
X8.5675Y-1.5389
X8.5675Y-3.5467
X8.5675Y-3.6648
X8.5675Y-3.783
X8.5675Y-4.0192
X8.6856Y-0.3578
X8.6856Y-0.594
X8.6856Y-0.7121
X8.6856Y-0.9483
X8.6856Y-1.0664
X8.6856Y-1.1845
X8.6856Y-1.3026
X8.6856Y-1.5389
X8.6856Y-2.2475
X8.6856Y-4.0192
X8.6944Y-2.3891
X8.8037Y-0.0034
X8.8037Y-0.4759
X8.8037Y-0.594
X8.8037Y-0.7121
X8.8037Y-1.0664
X8.8037Y-1.1845
X8.8037Y-1.3026
X8.8037Y-1.5389
X8.8037Y-2.2475
X8.8037Y-3.9011
X8.8037Y-4.0192
X8.8125Y-3.08
X8.8125Y-3.83
X8.9218Y0.2328
X8.9218Y-0.3578
X8.9218Y-0.4759
X8.9218Y-0.594
X8.9218Y-0.7121
X8.9218Y-1.3026
X8.9218Y-2.2475
X8.9218Y-2.4837
X8.9218Y-2.72
X8.9218Y-2.8381
X8.9218Y-3.1924
X8.9218Y-3.4286
X8.9218Y-3.5467
X8.9218Y-3.6648
X8.9218Y-3.783
X8.9218Y-3.9011
X8.9218Y-4.0192
X9.0399Y0.2328
X9.0399Y-0.2397
X9.0399Y-0.3578
X9.0399Y-0.4759
X9.0399Y-0.594
X9.0399Y-0.7121
X9.0399Y-0.9483
X9.0399Y-1.3026
X9.0399Y-1.4208
X9.0399Y-1.5389
X9.0399Y-1.657
X9.0399Y-2.1294
X9.0399Y-2.2475
X9.0399Y-2.3656
X9.0399Y-2.6019
X9.0399Y-2.8381
X9.0399Y-3.1924
X9.0399Y-3.4286
X9.0399Y-3.5467
X9.0399Y-3.6648
X9.0399Y-3.783
X9.0399Y-3.9011
X9.0399Y-4.0192
X9.1172Y-1.8029
X9.158Y0.2328
X9.158Y-0.0034
X9.158Y-0.2397
X9.158Y-0.3578
X9.158Y-0.4759
X9.158Y-0.594
X9.158Y-0.7121
X9.158Y-1.0664
X9.158Y-1.3026
X9.158Y-1.4208
X9.158Y-1.5389
X9.158Y-2.2475
X9.158Y-2.4837
X9.158Y-2.8381
X9.158Y-3.1924
X9.158Y-3.4286
X9.158Y-3.6648
X9.158Y-3.783
X9.158Y-4.0192
X9.2761Y0.2328
X9.2761Y-0.0034
X9.2761Y-0.2397
X9.2761Y-0.3578
X9.2761Y-0.4759
X9.2761Y-0.594
X9.2761Y-0.7121
X9.2761Y-1.5389
X9.2761Y-2.1294
X9.2761Y-3.1924
X9.2761Y-3.4286
X9.2761Y-3.783
X9.2761Y-4.0192
X9.3942Y0.2328
X9.3942Y-0.3578
X9.3942Y-0.4759
X9.3942Y-0.7121
X9.3942Y-0.9483
X9.3942Y-1.0664
X9.3942Y-1.5389
X9.3942Y-2.1294
X9.3942Y-2.2475
X9.3942Y-2.3656
X9.3942Y-2.4837
X9.3942Y-3.1924
X9.3942Y-3.6648
X9.5123Y0.2328
X9.5123Y-0.0034
X9.5123Y-0.3578
X9.5123Y-0.594
X9.5123Y-0.7121
X9.5123Y-0.9483
X9.5123Y-1.0664
X9.5123Y-1.3026
X9.5123Y-1.5389
X9.5123Y-2.2475
X9.5123Y-2.3656
X9.5123Y-2.4837
X9.5123Y-3.1924
X9.5123Y-3.4286
X9.5123Y-3.5467
X9.5123Y-3.6648
X9.5123Y-3.783
X9.5123Y-4.0192
X9.6304Y0.2328
X9.6304Y-0.4759
X9.6304Y-0.9483
X9.6304Y-1.0664
X9.6304Y-1.5389
X9.6304Y-2.2475
X9.6304Y-2.3656
X9.6304Y-2.4837
X9.6304Y-2.8381
X9.6304Y-3.5467
X9.6304Y-3.6648
X9.6304Y-3.783
X9.6304Y-4.0192
X9.7486Y0.2328
X9.7486Y-0.2397
X9.7486Y-0.3578
X9.7486Y-0.4759
X9.7486Y-0.594
X9.7486Y-0.7121
X9.7486Y-0.9483
X9.7486Y-1.0664
X9.7486Y-1.5389
X9.7486Y-3.5467
X9.7486Y-3.6648
X9.7486Y-3.783
X9.7486Y-3.9011
X9.7486Y-4.0192
X9.8667Y0.2328
X9.8667Y-0.0034
X9.8667Y-0.2397
X9.8667Y-0.3578
X9.8667Y-0.4759
X9.8667Y-0.594
X9.8667Y-0.7121
X9.8667Y-1.0664
X9.8667Y-1.3026
X9.8667Y-1.4208
X9.8667Y-1.5389
X9.8667Y-1.657
X9.8667Y-2.6019
X9.8667Y-2.8381
X9.8667Y-3.5467
X9.8667Y-3.6648
X9.9131Y-2.3891
X9.9848Y-0.0034
X9.9848Y-0.2397
X9.9848Y-0.3578
X9.9848Y-0.4759
X9.9848Y-0.594
X9.9848Y-0.7121
X9.9848Y-1.0664
X9.9848Y-1.3026
X9.9848Y-1.4208
X9.9848Y-1.5389
X9.9848Y-1.657
X9.9848Y-2.1294
X9.9848Y-2.2475
X9.9848Y-2.4837
X9.9848Y-3.5467
X9.9848Y-3.6648
X10.0878Y-3.08
X10.1029Y-0.0034
X10.1029Y-0.2397
X10.1029Y-0.3578
X10.1029Y-0.4759
X10.1029Y-0.594
X10.1029Y-0.7121
X10.1029Y-1.3026
X10.1029Y-1.4208
X10.1029Y-1.5389
X10.1029Y-2.4837
X10.1029Y-3.6648
X10.1029Y-3.783
X10.1029Y-4.0192
X10.221Y0.2328
X10.221Y-0.0034
X10.221Y-0.2397
X10.221Y-0.594
X10.221Y-0.7121
X10.221Y-1.3026
X10.221Y-1.4208
X10.221Y-1.5389
X10.221Y-2.9562
X10.221Y-3.1924
X10.221Y-3.4286
X10.221Y-3.783
X10.221Y-4.0192
X10.3391Y0.2328
X10.3391Y-0.594
X10.3391Y-0.7121
X10.3391Y-1.0664
X10.3391Y-1.3026
X10.3391Y-1.4208
X10.3391Y-1.5389
X10.3391Y-2.3656
X10.3391Y-2.4837
X10.3391Y-2.6019
X10.3391Y-3.1924
X10.3391Y-3.6648
X10.4572Y0.2328
X10.4572Y-0.0034
X10.4572Y-0.3578
X10.4572Y-0.4759
X10.4572Y-0.9483
X10.4572Y-1.0664
X10.4572Y-1.4208
X10.4572Y-1.5389
X10.4572Y-2.3656
X10.4572Y-2.4837
X10.4572Y-2.8381
X10.4572Y-3.1924
X10.4572Y-3.4286
X10.4572Y-3.5467
X10.4572Y-3.6648
X10.4572Y-3.783
X10.4572Y-4.0192
X10.5753Y0.2328
X10.5753Y-0.3578
X10.5753Y-0.9483
X10.5753Y-1.0664
X10.5753Y-1.5389
X10.5753Y-2.3656
X10.5753Y-2.6019
X10.5753Y-2.9562
X10.5753Y-3.1924
X10.5753Y-3.4286
X10.5753Y-3.5467
X10.5753Y-3.6648
X10.5753Y-3.783
X10.5753Y-3.9011
X10.5753Y-4.0192
X10.6934Y0.2328
X10.6934Y-0.2397
X10.6934Y-0.3578
X10.6934Y-0.4759
X10.6934Y-0.594
X10.6934Y-0.7121
X10.6934Y-0.9483
X10.6934Y-1.0664
X10.6934Y-1.4208
X10.6934Y-2.4837
X10.6934Y-2.6019
X10.6934Y-2.9562
X10.6934Y-3.1924
X10.6934Y-3.4286
X10.6934Y-3.5467
X10.6934Y-3.6648
X10.6934Y-3.783
X10.6934Y-3.9011
X10.6934Y-4.0192
X10.8115Y0.2328
X10.8115Y-0.0034
X10.8115Y-0.2397
X10.8115Y-0.3578
X10.8115Y-0.4759
X10.8115Y-0.7121
X10.8115Y-0.9483
X10.8115Y-1.0664
X10.8115Y-1.3026
X10.8115Y-1.4208
X10.8115Y-1.5389
X10.8115Y-1.657
X10.8115Y-2.2475
X10.8115Y-2.4837
X10.8115Y-2.6019
X10.8115Y-3.1924
X10.8115Y-3.4286
X10.8115Y-3.5467
X10.8115Y-3.6648
X10.8115Y-3.783
X10.8115Y-3.9011
X10.8115Y-4.0192
X10.9097Y-0.1154
X10.9097Y-0.4851
X10.9297Y0.2328
X10.9297Y-0.0034
X10.9297Y-0.9483
X10.9297Y-1.0664
X10.9297Y-1.3026
X10.9297Y-1.4208
X10.9297Y-1.5389
X10.9297Y-1.657
X10.9297Y-2.4837
X10.9297Y-2.6019
X10.9297Y-2.72
X10.9297Y-2.8381
X10.9297Y-3.1924
X10.9297Y-3.4286
X10.9297Y-3.5467
X10.9297Y-3.6648
X10.9297Y-3.783
X10.9297Y-3.9011
X10.9297Y-4.0192
X11.0478Y0.2328
X11.0478Y-0.0034
X11.0478Y-0.2397
X11.0478Y-0.3578
X11.0478Y-0.9483
X11.0478Y-1.0664
X11.0478Y-1.4208
X11.0478Y-1.5389
X11.0478Y-1.657
X11.0478Y-3.1924
X11.0478Y-3.4286
X11.0478Y-3.5467
X11.0478Y-3.6648
X11.0478Y-3.783
X11.0478Y-3.9011
X11.0478Y-4.0192
X11.1652Y-2.5167
X11.1659Y0.2328
X11.1659Y-0.0034
X11.1659Y-0.2397
X11.1659Y-0.3578
X11.1659Y-0.594
X11.1659Y-0.7121
X11.1659Y-0.9483
X11.1659Y-1.0664
X11.1659Y-1.5389
X11.1659Y-1.657
X11.1659Y-2.1294
X11.1659Y-3.1924
X11.1659Y-3.4286
X11.1659Y-3.5467
X11.1659Y-3.6648
X11.1659Y-3.783
X11.1659Y-3.9011
X11.1659Y-4.0192
X11.284Y0.2328
X11.284Y-0.3578
X11.284Y-0.594
X11.284Y-0.7121
X11.284Y-1.0664
X11.284Y-1.3026
X11.284Y-1.4208
X11.284Y-1.5389
X11.284Y-2.1294
X11.284Y-3.0743
X11.284Y-3.1924
X11.284Y-3.4286
X11.284Y-3.5467
X11.284Y-3.6648
X11.284Y-3.783
X11.284Y-4.0192
X11.3817Y-2.5167
X11.4021Y0.2328
X11.4021Y-0.0034
X11.4021Y-0.7121
X11.4021Y-1.3026
X11.4021Y-1.4208
X11.4021Y-1.5389
X11.4021Y-2.1294
X11.4021Y-2.3656
X11.4021Y-3.0743
X11.4021Y-3.1924
X11.4021Y-3.4286
X11.4021Y-3.5467
X11.4021Y-3.6648
X11.4021Y-3.783
X11.5202Y0.2328
X11.5202Y-0.7121
X11.5202Y-1.3026
X11.5202Y-1.4208
X11.5202Y-1.5389
X11.5202Y-2.1294
X11.5202Y-2.2475
X11.5202Y-2.3656
X11.5202Y-2.9562
X11.5202Y-3.0743
X11.5202Y-3.1924
X11.5202Y-3.4286
X11.5202Y-3.5467
X11.5202Y-3.6648
X11.5202Y-3.783
X11.5202Y-4.0192
X11.6383Y0.2328
X11.6383Y-0.2397
X11.6383Y-0.3578
X11.6383Y-0.594
X11.6383Y-0.7121
X11.6383Y-1.0664
X11.6383Y-1.3026
X11.6383Y-1.4208
X11.6383Y-1.5389
X11.6383Y-2.1294
X11.6383Y-2.2475
X11.6383Y-2.9562
X11.6383Y-3.0743
X11.6383Y-3.1924
X11.6383Y-3.4286
X11.6383Y-3.5467
X11.6383Y-3.6648
X11.6383Y-3.783
X11.6383Y-4.0192
X11.7564Y-2.9562
X11.7564Y-3.0743
X11.7564Y-3.1924
X11.7564Y-3.4286
X11.7564Y-3.5467
X11.7564Y-3.6648
X11.7564Y-3.783
X11.7564Y-4.0192
X11.8125Y0.1075
X11.8125Y-0.4851
X11.8125Y-0.83
X11.8125Y-3.1353
X11.8125Y-3.83
X11.8125Y-1.58
X11.8745Y-0.0034
X11.8745Y-0.2397
X11.8745Y-0.3578
X11.8745Y-0.4759
X11.8745Y-0.594
X11.8745Y-0.7121
X11.8745Y-0.9483
X11.8745Y-1.0664
X11.8745Y-1.3026
X11.8745Y-1.4208
X11.8745Y-1.5389
X11.8745Y-1.657
X11.8745Y-2.1294
X11.8745Y-2.9562
X11.8745Y-3.0743
X11.8745Y-3.1924
X11.8745Y-3.4286
X11.8745Y-3.5467
X11.8745Y-3.6648
X11.8745Y-3.783
X11.8745Y-4.0192
X11.9063Y-0.1154
X11.9063Y-1.2221
X11.9063Y-1.8029
X11.9927Y0.2328
X11.9927Y-0.3578
X11.9927Y-0.4759
X11.9927Y-0.594
X11.9927Y-0.7121
X11.9927Y-1.0664
X11.9927Y-1.1845
X11.9927Y-1.3026
X11.9927Y-1.4208
X11.9927Y-1.5389
X11.9927Y-2.1294
X11.9927Y-2.4837
X11.9927Y-3.0743
X11.9927Y-3.5467
X11.9927Y-3.6648
X11.9927Y-4.0192
X12.1108Y0.2328
X12.1108Y-0.3578
X12.1108Y-0.4759
X12.1108Y-0.594
X12.1108Y-0.7121
X12.1108Y-1.3026
X12.1108Y-1.4208
X12.1108Y-1.5389
X12.1108Y-2.1294
X12.1108Y-2.4837
X12.1108Y-2.6019
X12.1108Y-2.72
X12.1108Y-2.8381
X12.1108Y-2.9562
X12.1108Y-3.0743
X12.1108Y-3.5467
X12.1108Y-3.6648
X12.1108Y-4.0192
X12.2289Y0.2328
X12.2289Y-0.0034
X12.2289Y-0.3578
X12.2289Y-0.4759
X12.2289Y-0.594
X12.2289Y-0.7121
X12.2289Y-0.9483
X12.2289Y-1.3026
X12.2289Y-1.4208
X12.2289Y-1.5389
X12.2289Y-2.1294
X12.2289Y-2.4837
X12.2289Y-2.6019
X12.2289Y-2.72
X12.2289Y-2.8381
X12.2289Y-2.9562
X12.2289Y-3.0743
X12.2289Y-3.1924
X12.2289Y-3.5467
X12.2289Y-3.6648
X12.2289Y-3.783
X12.347Y0.2328
X12.347Y-0.2397
X12.347Y-0.3578
X12.347Y-0.4759
X12.347Y-0.594
X12.347Y-0.7121
X12.347Y-1.0664
X12.347Y-1.3026
X12.347Y-1.4208
X12.347Y-1.5389
X12.347Y-2.4837
X12.347Y-2.72
X12.347Y-2.8381
X12.347Y-2.9562
X12.347Y-3.0743
X12.347Y-3.3105
X12.347Y-3.4286
X12.347Y-3.5467
X12.347Y-3.6648
X12.347Y-3.783
X12.347Y-4.0192
X12.4651Y-0.7121
X12.4651Y-1.0664
X12.4651Y-1.1845
X12.4651Y-1.3026
X12.4651Y-1.4208
X12.4651Y-1.5389
X12.4651Y-3.0743
X12.4651Y-3.1924
X12.4651Y-3.3105
X12.4651Y-3.4286
X12.4651Y-3.5467
X12.4651Y-3.6648
X12.4651Y-3.9011
X12.4651Y-4.0192
X12.5832Y-0.0034
X12.5832Y-0.2397
X12.5832Y-0.594
X12.5832Y-2.4837
X12.5832Y-2.6019
X12.5832Y-2.72
X12.5832Y-2.8381
X12.5832Y-2.9562
X12.5832Y-3.0743
X12.5832Y-3.1924
X12.5832Y-3.3105
X12.5832Y-3.5467
X12.5832Y-3.6648
X12.5832Y-3.9011
X12.5832Y-4.0192
X12.7013Y-0.2397
X12.7013Y-0.3578
X12.7013Y-0.4759
X12.7013Y-0.594
X12.7013Y-1.0664
X12.7013Y-1.1845
X12.7013Y-1.3026
X12.7013Y-2.0113
X12.7013Y-2.4837
X12.7013Y-2.6019
X12.7013Y-2.72
X12.7013Y-2.8381
X12.7013Y-2.9562
X12.7013Y-3.0743
X12.7013Y-3.1924
X12.7013Y-3.5467
X12.7013Y-3.6648
X12.7013Y-4.0192
X12.7483Y-2.3832
X12.8194Y0.2328
X12.8194Y-0.1215
X12.8194Y-0.3578
X12.8194Y-0.4759
X12.8194Y-0.594
X12.8194Y-0.7121
X12.8194Y-1.0664
X12.8194Y-1.3026
X12.8194Y-1.5389
X12.8194Y-1.7751
X12.8194Y-2.0113
X12.8194Y-2.1294
X12.8194Y-2.4837
X12.8194Y-2.6019
X12.8194Y-2.72
X12.8194Y-2.8381
X12.8194Y-2.9562
X12.8194Y-3.4286
X12.8194Y-3.5467
X12.8194Y-3.6648
X12.8194Y-4.0192
X12.9375Y0.2328
X12.9375Y0.1147
X12.9375Y-0.0034
X12.9375Y-0.3578
X12.9375Y-0.4759
X12.9375Y-0.594
X12.9375Y-0.7121
X12.9375Y-0.8302
X12.9375Y-1.5389
X12.9375Y-1.657
X12.9375Y-2.0113
X12.9375Y-2.1294
X12.9375Y-3.3105
X12.9375Y-3.4286
X12.9375Y-3.5467
X12.9375Y-3.9011
X13.0556Y0.2328
X13.0556Y0.1147
X13.0556Y-0.7121
X13.0556Y-2.2475
X13.0556Y-2.3656
X13.0556Y-2.4837
X13.0556Y-2.6019
X13.0556Y-2.72
X13.0556Y-2.8381
X13.0556Y-2.9562
X13.0556Y-3.0743
X13.1738Y0.2328
X13.1738Y0.1147
X13.1738Y-0.1215
X13.1738Y-2.72
X13.1738Y-2.8381
X13.1738Y-2.9562
X13.1738Y-3.0743
X13.1738Y-3.1924
X13.1738Y-3.3105
X13.1738Y-3.5467
X13.1738Y-3.6648
X13.1738Y-3.783
X13.1738Y-4.0192
X13.1738Y-4.1373
T4
X-0.28Y-2.0231
X-0.2584Y-1.9709
X-0.2584Y-2.0753
X-0.2062Y-1.9493
X-0.2062Y-2.0969
X-0.154Y-1.9709
X-0.154Y-2.0753
X-0.1324Y-2.0231
X0.3986Y-0.4331
X0.4202Y-0.3809
X0.4202Y-0.4853
X0.4724Y-0.3593
X0.4724Y-0.5069
X0.5246Y-0.3809
X0.5246Y-0.4853
X0.5355Y-3.9375
X0.5462Y-0.4331
X0.5572Y-3.8853
X0.5572Y-3.9897
X0.6094Y-3.8637
X0.6094Y-4.0113
X0.6616Y-3.8853
X0.6616Y-3.9897
X0.6832Y-3.9375
X3.0199Y-1.3125
X3.0416Y-1.2603
X3.0416Y-1.3647
X3.0938Y-1.2387
X3.0938Y-1.3863
X3.1459Y-1.2603
X3.1459Y-1.3647
X3.1676Y-1.3125
X3.2074Y-2.8125
X3.2291Y-2.7603
X3.2291Y-2.8647
X3.2812Y-2.7387
X3.2812Y-2.8863
X3.3334Y-2.7603
X3.3334Y-2.8647
X3.3551Y-2.8125
X3.5876Y-0.4331
X3.6092Y-0.3809
X3.6092Y-0.4853
X3.6614Y-0.3593
X3.6614Y-0.5069
X3.7136Y-0.3809
X3.7136Y-0.4853
X3.7352Y-0.4331
X5.5896Y-4.0556
X5.6112Y-4.0034
X5.6112Y-4.1078
X5.6634Y-3.9818
X5.6634Y-4.1294
X5.7156Y-4.0034
X5.7156Y-4.1078
X5.7372Y-4.0556
X6.7613Y-0.4331
X6.7829Y-0.3809
X6.7829Y-0.4853
X6.8351Y-0.3593
X6.8351Y-0.5069
X6.8873Y-0.3809
X6.8873Y-0.4853
X6.9089Y-0.4331
X7.5199Y-1.3125
X7.5416Y-1.2603
X7.5416Y-1.3647
X7.5938Y-1.2387
X7.5938Y-1.3863
X7.6459Y-1.2603
X7.6459Y-1.3647
X7.6676Y-1.3125
X7.7074Y-2.8125
X7.7291Y-2.7603
X7.7291Y-2.8647
X7.7812Y-2.7387
X7.7812Y-2.8863
X7.8334Y-2.7603
X7.8334Y-2.8647
X7.8551Y-2.8125
X9.8168Y-3.9375
X9.8384Y-3.8853
X9.8384Y-3.9897
X9.8906Y-3.8637
X9.8906Y-4.0113
X9.9428Y-3.8853
X9.9428Y-3.9897
X9.9644Y-3.9375
X10.1865Y-0.4331
X10.2081Y-0.3809
X10.2081Y-0.4853
X10.2603Y-0.3593
X10.2603Y-0.5069
X10.3125Y-0.3809
X10.3125Y-0.4853
X10.3341Y-0.4331
X10.7074Y-2.8125
X10.7291Y-2.7603
X10.7291Y-2.8647
X10.7812Y-2.7387
X10.7812Y-2.8863
X10.8334Y-2.7603
X10.8334Y-2.8647
X10.8551Y-2.8125
X11.0824Y-1.3125
X11.1041Y-1.2603
X11.1041Y-1.3647
X11.1562Y-1.2387
X11.1562Y-1.3863
X11.2084Y-1.2603
X11.2084Y-1.3647
X11.2301Y-1.3125
X12.4887Y-0.4331
X12.5103Y-0.3809
X12.5103Y-0.4853
X12.5625Y-0.3593
X12.5625Y-0.5069
X12.6147Y-0.3809
X12.6147Y-0.4853
X12.6363Y-0.4331
X12.7062Y-3.3076
X12.7278Y-3.2554
X12.7278Y-3.3598
X12.78Y-3.2338
X12.78Y-3.3814
X12.8322Y-3.2554
X12.8322Y-3.3598
X12.8538Y-3.3076
T5
X10.8171Y-2.9689
X10.9171Y-2.9689
X11.0171Y-2.9689
X11.1171Y-2.9689
X11.5935Y-2.4478
X11.6935Y-2.4478
X11.7935Y-2.4478
X11.8935Y-2.4478
T6
X-0.2062Y-2.0231
X0.4724Y-0.4331
X0.6094Y-3.9375
X3.0938Y-1.3125
X3.2812Y-2.8125
X3.6614Y-0.4331
X5.6634Y-4.0556
X6.8351Y-0.4331
X7.5938Y-1.3125
X7.7812Y-2.8125
X9.8906Y-3.9375
X10.2603Y-0.4331
X10.7812Y-2.8125
X11.1562Y-1.3125
X12.5625Y-0.4331
X12.78Y-3.3076
M30
