%TF.GenerationSoftware,KiCad,Pcbnew,8.0.6*%
%TF.CreationDate,2025-04-02T20:39:07+07:00*%
%TF.ProjectId,Zellia80,5a656c6c-6961-4383-902e-6b696361645f,rev?*%
%TF.SameCoordinates,Original*%
%TF.FileFunction,Other,Comment*%
%FSLAX46Y46*%
G04 Gerber Fmt 4.6, Leading zero omitted, Abs format (unit mm)*
G04 Created by KiCad (PCBNEW 8.0.6) date 2025-04-02 20:39:07*
%MOMM*%
%LPD*%
G01*
G04 APERTURE LIST*
%ADD10C,0.150000*%
G04 APERTURE END LIST*
D10*
%TO.C,H16*%
X276343750Y-71437500D02*
G75*
G02*
X271343750Y-71437500I-2500000J0D01*
G01*
X271343750Y-71437500D02*
G75*
G02*
X276343750Y-71437500I2500000J0D01*
G01*
%TO.C,H13*%
X321587122Y-11000010D02*
G75*
G02*
X316587122Y-11000010I-2500000J0D01*
G01*
X316587122Y-11000010D02*
G75*
G02*
X321587122Y-11000010I2500000J0D01*
G01*
%TO.C,H14*%
X17977747Y-100012510D02*
G75*
G02*
X12977747Y-100012510I-2500000J0D01*
G01*
X12977747Y-100012510D02*
G75*
G02*
X17977747Y-100012510I2500000J0D01*
G01*
%TO.C,H11*%
X195381250Y-33337500D02*
G75*
G02*
X190381250Y-33337500I-2500000J0D01*
G01*
X190381250Y-33337500D02*
G75*
G02*
X195381250Y-33337500I2500000J0D01*
G01*
%TO.C,H5*%
X176112244Y-11000010D02*
G75*
G02*
X171112244Y-11000010I-2500000J0D01*
G01*
X171112244Y-11000010D02*
G75*
G02*
X176112244Y-11000010I2500000J0D01*
G01*
%TO.C,H4*%
X-2737878Y-51387510D02*
G75*
G02*
X-7737878Y-51387510I-2500000J0D01*
G01*
X-7737878Y-51387510D02*
G75*
G02*
X-2737878Y-51387510I2500000J0D01*
G01*
%TO.C,H10*%
X285868750Y-33337500D02*
G75*
G02*
X280868750Y-33337500I-2500000J0D01*
G01*
X280868750Y-33337500D02*
G75*
G02*
X285868750Y-33337500I2500000J0D01*
G01*
%TO.C,H1*%
X95499244Y-11000010D02*
G75*
G02*
X90499244Y-11000010I-2500000J0D01*
G01*
X90499244Y-11000010D02*
G75*
G02*
X95499244Y-11000010I2500000J0D01*
G01*
%TO.C,H18*%
X200143750Y-71437500D02*
G75*
G02*
X195143750Y-71437500I-2500000J0D01*
G01*
X195143750Y-71437500D02*
G75*
G02*
X200143750Y-71437500I2500000J0D01*
G01*
%TO.C,H12*%
X14499244Y-11000010D02*
G75*
G02*
X9499244Y-11000010I-2500000J0D01*
G01*
X9499244Y-11000010D02*
G75*
G02*
X14499244Y-11000010I2500000J0D01*
G01*
%TO.C,H17*%
X81081250Y-33337500D02*
G75*
G02*
X76081250Y-33337500I-2500000J0D01*
G01*
X76081250Y-33337500D02*
G75*
G02*
X81081250Y-33337500I2500000J0D01*
G01*
%TO.C,H2*%
X263112244Y-11000010D02*
G75*
G02*
X258112244Y-11000010I-2500000J0D01*
G01*
X258112244Y-11000010D02*
G75*
G02*
X263112244Y-11000010I2500000J0D01*
G01*
%TO.C,H3*%
X85843750Y-71437500D02*
G75*
G02*
X80843750Y-71437500I-2500000J0D01*
G01*
X80843750Y-71437500D02*
G75*
G02*
X85843750Y-71437500I2500000J0D01*
G01*
%TO.C,H15*%
X253721497Y-100012510D02*
G75*
G02*
X248721497Y-100012510I-2500000J0D01*
G01*
X248721497Y-100012510D02*
G75*
G02*
X253721497Y-100012510I2500000J0D01*
G01*
%TO.C,H8*%
X327112244Y-84012520D02*
G75*
G02*
X322112244Y-84012520I-2500000J0D01*
G01*
X322112244Y-84012520D02*
G75*
G02*
X327112244Y-84012520I2500000J0D01*
G01*
%TO.C,H7*%
X146350000Y-103012500D02*
G75*
G02*
X141350000Y-103012500I-2500000J0D01*
G01*
X141350000Y-103012500D02*
G75*
G02*
X146350000Y-103012500I2500000J0D01*
G01*
%TO.C,U25*%
X43116500Y-81216500D02*
X42608500Y-80708500D01*
X43116500Y-80708500D02*
X42608500Y-81216500D01*
%TO.C,U23*%
X47879000Y-43116500D02*
X47371000Y-42608500D01*
X47879000Y-42608500D02*
X47371000Y-43116500D01*
%TO.C,U96*%
X328866500Y-100266500D02*
X328358500Y-99758500D01*
X328866500Y-99758500D02*
X328358500Y-100266500D01*
%TO.C,U26*%
X124079000Y-254000D02*
X123571000Y254000D01*
X124079000Y254000D02*
X123571000Y-254000D01*
%TO.C,U27*%
X143129000Y-254000D02*
X142621000Y254000D01*
X143129000Y254000D02*
X142621000Y-254000D01*
%TO.C,U30*%
X71691500Y-62166500D02*
X71183500Y-61658500D01*
X71691500Y-61658500D02*
X71183500Y-62166500D01*
%TO.C,U38*%
X185991500Y-254000D02*
X185483500Y254000D01*
X185991500Y254000D02*
X185483500Y-254000D01*
%TO.C,U66*%
X185991500Y-62166500D02*
X185483500Y-61658500D01*
X185991500Y-61658500D02*
X185483500Y-62166500D01*
%TO.C,U13*%
X62166500Y-254000D02*
X61658500Y254000D01*
X62166500Y254000D02*
X61658500Y-254000D01*
%TO.C,U20*%
X105029000Y-254000D02*
X104521000Y254000D01*
X105029000Y254000D02*
X104521000Y-254000D01*
%TO.C,U72*%
X205041500Y-62166500D02*
X204533500Y-61658500D01*
X205041500Y-61658500D02*
X204533500Y-62166500D01*
%TO.C,U79*%
X214566500Y-81216500D02*
X214058500Y-80708500D01*
X214566500Y-80708500D02*
X214058500Y-81216500D01*
%TO.C,U44*%
X224091500Y-254000D02*
X223583500Y254000D01*
X224091500Y254000D02*
X223583500Y-254000D01*
%TO.C,U32*%
X162179000Y-254000D02*
X161671000Y254000D01*
X162179000Y254000D02*
X161671000Y-254000D01*
%TO.C,U9*%
X43116500Y-254000D02*
X42608500Y254000D01*
X43116500Y254000D02*
X42608500Y-254000D01*
%TO.C,U55*%
X138366500Y-81216500D02*
X137858500Y-80708500D01*
X138366500Y-80708500D02*
X137858500Y-81216500D01*
%TO.C,U82*%
X228854000Y-24066500D02*
X228346000Y-23558500D01*
X228854000Y-23558500D02*
X228346000Y-24066500D01*
%TO.C,U77*%
X219329000Y-43116500D02*
X218821000Y-42608500D01*
X219329000Y-42608500D02*
X218821000Y-43116500D01*
%TO.C,U58*%
X152654000Y-24066500D02*
X152146000Y-23558500D01*
X152654000Y-23558500D02*
X152146000Y-24066500D01*
%TO.C,U31*%
X62166500Y-81216500D02*
X61658500Y-80708500D01*
X62166500Y-80708500D02*
X61658500Y-81216500D01*
%TO.C,U89*%
X261683500Y-43116500D02*
X262191500Y-42608500D01*
X261683500Y-42608500D02*
X262191500Y-43116500D01*
%TO.C,U92*%
X238379000Y-100266500D02*
X237871000Y-99758500D01*
X238379000Y-99758500D02*
X237871000Y-100266500D01*
%TO.C,U37*%
X81216500Y-81216500D02*
X80708500Y-80708500D01*
X81216500Y-80708500D02*
X80708500Y-81216500D01*
%TO.C,U18*%
X33591500Y-62166500D02*
X33083500Y-61658500D01*
X33591500Y-61658500D02*
X33083500Y-62166500D01*
%TO.C,U65*%
X181229000Y-43116500D02*
X180721000Y-42608500D01*
X181229000Y-42608500D02*
X180721000Y-43116500D01*
%TO.C,U10*%
X254000Y-24066500D02*
X-254000Y-23558500D01*
X254000Y-23558500D02*
X-254000Y-24066500D01*
%TO.C,U97*%
X309816500Y-81216500D02*
X309308500Y-80708500D01*
X309816500Y-80708500D02*
X309308500Y-81216500D01*
%TO.C,U87*%
X328866500Y-24066500D02*
X328358500Y-23558500D01*
X328866500Y-23558500D02*
X328358500Y-24066500D01*
%TO.C,U12*%
X6889750Y-62166500D02*
X7397750Y-61658500D01*
X6889750Y-61658500D02*
X7397750Y-62166500D01*
%TO.C,U86*%
X309816500Y-24066500D02*
X309308500Y-23558500D01*
X309816500Y-23558500D02*
X309308500Y-24066500D01*
%TO.C,U57*%
X249777250Y-81216500D02*
X250285250Y-80708500D01*
X249777250Y-80708500D02*
X250285250Y-81216500D01*
%TO.C,U83*%
X238379000Y-43116500D02*
X237871000Y-42608500D01*
X238379000Y-42608500D02*
X237871000Y-43116500D01*
%TO.C,U33*%
X11652250Y-81216500D02*
X12160250Y-80708500D01*
X11652250Y-80708500D02*
X12160250Y-81216500D01*
%TO.C,U93*%
X309816500Y-254000D02*
X309308500Y254000D01*
X309816500Y254000D02*
X309308500Y-254000D01*
%TO.C,U17*%
X28829000Y-43116500D02*
X28321000Y-42608500D01*
X28829000Y-42608500D02*
X28321000Y-43116500D01*
%TO.C,U88*%
X290766500Y-43116500D02*
X290258500Y-42608500D01*
X290766500Y-42608500D02*
X290258500Y-43116500D01*
%TO.C,U3*%
X256921000Y-24066500D02*
X257429000Y-23558500D01*
X256921000Y-23558500D02*
X257429000Y-24066500D01*
%TO.C,U34*%
X76454000Y-24066500D02*
X75946000Y-23558500D01*
X76454000Y-23558500D02*
X75946000Y-24066500D01*
%TO.C,U35*%
X85979000Y-43116500D02*
X85471000Y-42608500D01*
X85979000Y-42608500D02*
X85471000Y-43116500D01*
%TO.C,U6*%
X52133500Y-100266500D02*
X52641500Y-99758500D01*
X52133500Y-99758500D02*
X52641500Y-100266500D01*
%TO.C,U36*%
X90741500Y-62166500D02*
X90233500Y-61658500D01*
X90741500Y-61658500D02*
X90233500Y-62166500D01*
%TO.C,U70*%
X190754000Y-24066500D02*
X190246000Y-23558500D01*
X190754000Y-23558500D02*
X190246000Y-24066500D01*
%TO.C,U8*%
X214058500Y-100266500D02*
X214566500Y-99758500D01*
X214058500Y-99758500D02*
X214566500Y-100266500D01*
%TO.C,U50*%
X266954000Y-254000D02*
X266446000Y254000D01*
X266954000Y254000D02*
X266446000Y-254000D01*
%TO.C,U43*%
X100266500Y-81216500D02*
X99758500Y-80708500D01*
X100266500Y-80708500D02*
X99758500Y-81216500D01*
%TO.C,U52*%
X133604000Y-24066500D02*
X133096000Y-23558500D01*
X133604000Y-23558500D02*
X133096000Y-24066500D01*
%TO.C,U22*%
X38354000Y-24066500D02*
X37846000Y-23558500D01*
X38354000Y-23558500D02*
X37846000Y-24066500D01*
%TO.C,U5*%
X28829000Y-100266500D02*
X28321000Y-99758500D01*
X28829000Y-99758500D02*
X28321000Y-100266500D01*
%TO.C,U67*%
X176466500Y-81216500D02*
X175958500Y-80708500D01*
X176466500Y-80708500D02*
X175958500Y-81216500D01*
%TO.C,U54*%
X147891500Y-62166500D02*
X147383500Y-61658500D01*
X147891500Y-61658500D02*
X147383500Y-62166500D01*
%TO.C,U53*%
X143129000Y-43116500D02*
X142621000Y-42608500D01*
X143129000Y-42608500D02*
X142621000Y-43116500D01*
%TO.C,U29*%
X66929000Y-43116500D02*
X66421000Y-42608500D01*
X66929000Y-42608500D02*
X66421000Y-43116500D01*
%TO.C,U91*%
X328866500Y-43116500D02*
X328358500Y-42608500D01*
X328866500Y-42608500D02*
X328358500Y-43116500D01*
%TO.C,U40*%
X95504000Y-24066500D02*
X94996000Y-23558500D01*
X95504000Y-23558500D02*
X94996000Y-24066500D01*
%TO.C,U90*%
X309816500Y-43116500D02*
X309308500Y-42608500D01*
X309816500Y-42608500D02*
X309308500Y-43116500D01*
%TO.C,U75*%
X290766500Y-254000D02*
X290258500Y254000D01*
X290766500Y254000D02*
X290258500Y-254000D01*
%TO.C,U45*%
X243141500Y-254000D02*
X242633500Y254000D01*
X243141500Y254000D02*
X242633500Y-254000D01*
%TO.C,U47*%
X124079000Y-43116500D02*
X123571000Y-42608500D01*
X124079000Y-42608500D02*
X123571000Y-43116500D01*
%TO.C,U95*%
X309816500Y-100266500D02*
X309308500Y-99758500D01*
X309816500Y-99758500D02*
X309308500Y-100266500D01*
%TO.C,U71*%
X200279000Y-43116500D02*
X199771000Y-42608500D01*
X200279000Y-42608500D02*
X199771000Y-43116500D01*
%TO.C,U14*%
X81216500Y-254000D02*
X80708500Y254000D01*
X81216500Y254000D02*
X80708500Y-254000D01*
%TO.C,U28*%
X57404000Y-24066500D02*
X56896000Y-23558500D01*
X57404000Y-23558500D02*
X56896000Y-24066500D01*
%TO.C,U42*%
X109791500Y-62166500D02*
X109283500Y-61658500D01*
X109791500Y-61658500D02*
X109283500Y-62166500D01*
%TO.C,U4*%
X4508500Y-100266500D02*
X5016500Y-99758500D01*
X4508500Y-99758500D02*
X5016500Y-100266500D01*
%TO.C,U11*%
X4508500Y-43116500D02*
X5016500Y-42608500D01*
X4508500Y-42608500D02*
X5016500Y-43116500D01*
%TO.C,U73*%
X195516500Y-81216500D02*
X195008500Y-80708500D01*
X195516500Y-80708500D02*
X195008500Y-81216500D01*
%TO.C,U84*%
X255047750Y-62166500D02*
X254539750Y-61658500D01*
X255047750Y-61658500D02*
X254539750Y-62166500D01*
%TO.C,U41*%
X105029000Y-43116500D02*
X104521000Y-42608500D01*
X105029000Y-42608500D02*
X104521000Y-43116500D01*
%TO.C,U48*%
X128841500Y-62166500D02*
X128333500Y-61658500D01*
X128841500Y-61658500D02*
X128333500Y-62166500D01*
%TO.C,U39*%
X205041500Y-254000D02*
X204533500Y254000D01*
X205041500Y254000D02*
X204533500Y-254000D01*
%TO.C,U60*%
X166941500Y-62166500D02*
X166433500Y-61658500D01*
X166941500Y-61658500D02*
X166433500Y-62166500D01*
%TO.C,U94*%
X290766500Y-100266500D02*
X290258500Y-99758500D01*
X290766500Y-99758500D02*
X290258500Y-100266500D01*
%TO.C,U64*%
X171704000Y-24066500D02*
X171196000Y-23558500D01*
X171704000Y-23558500D02*
X171196000Y-24066500D01*
%TO.C,U7*%
X133096000Y-100266500D02*
X133604000Y-99758500D01*
X133096000Y-99758500D02*
X133604000Y-100266500D01*
%TO.C,U59*%
X162179000Y-43116500D02*
X161671000Y-42608500D01*
X162179000Y-42608500D02*
X161671000Y-43116500D01*
%TO.C,U78*%
X224091500Y-62166500D02*
X223583500Y-61658500D01*
X224091500Y-61658500D02*
X223583500Y-62166500D01*
%TO.C,U99*%
X328866500Y-254000D02*
X328358500Y254000D01*
X328866500Y254000D02*
X328358500Y-254000D01*
%TO.C,U16*%
X19304000Y-24066500D02*
X18796000Y-23558500D01*
X19304000Y-23558500D02*
X18796000Y-24066500D01*
%TO.C,U49*%
X119316500Y-81216500D02*
X118808500Y-80708500D01*
X119316500Y-80708500D02*
X118808500Y-81216500D01*
%TO.C,U61*%
X157416500Y-81216500D02*
X156908500Y-80708500D01*
X157416500Y-80708500D02*
X156908500Y-81216500D01*
%TO.C,U46*%
X114554000Y-24066500D02*
X114046000Y-23558500D01*
X114554000Y-23558500D02*
X114046000Y-24066500D01*
%TO.C,U76*%
X209804000Y-24066500D02*
X209296000Y-23558500D01*
X209804000Y-23558500D02*
X209296000Y-24066500D01*
%TO.C,U98*%
X261683500Y-100266500D02*
X262191500Y-99758500D01*
X261683500Y-99758500D02*
X262191500Y-100266500D01*
%TO.C,U2*%
X24066500Y-254000D02*
X23558500Y254000D01*
X24066500Y254000D02*
X23558500Y-254000D01*
%TO.C,U1*%
X254000Y-254000D02*
X-254000Y254000D01*
X254000Y254000D02*
X-254000Y-254000D01*
%TO.C,U80*%
X290766500Y-24066500D02*
X290258500Y-23558500D01*
X290766500Y-23558500D02*
X290258500Y-24066500D01*
%TO.C,U24*%
X52641500Y-62166500D02*
X52133500Y-61658500D01*
X52641500Y-61658500D02*
X52133500Y-62166500D01*
%TD*%
M02*
