M48
; DRILL file {KiCad 8.0.6} date 2025-04-02T20:39:07+0700
; FORMAT={-:-/ absolute / inch / decimal}
; #@! TF.CreationDate,2025-04-02T20:39:07+07:00
; #@! TF.GenerationSoftware,Kicad,Pcbnew,8.0.6
; #@! TF.FileFunction,NonPlated,1,4,NPTH
FMAT,2
INCH
; #@! TA.AperFunction,NonPlated,NPTH,ComponentDrill
T1C0.0689
; #@! TA.AperFunction,NonPlated,NPTH,ComponentDrill
T2C0.1200
; #@! TA.AperFunction,NonPlated,NPTH,ComponentDrill
T3C0.1570
%
G90
G05
T1
X-0.2Y0.0
X-0.2Y-0.9375
X-0.0125Y-1.6875
X-0.0125Y-3.9375
X0.0813Y-2.4375
X0.2Y0.0
X0.2Y-0.9375
X0.2687Y-3.1875
X0.3875Y-1.6875
X0.3875Y-3.9375
X0.4813Y-2.4375
X0.55Y-0.9375
X0.6687Y-3.1875
X0.7375Y0.0
X0.925Y-1.6875
X0.925Y-3.9375
X0.95Y-0.9375
X1.1125Y-2.4375
X1.1375Y0.0
X1.3Y-0.9375
X1.325Y-1.6875
X1.325Y-3.9375
X1.4875Y0.0
X1.4875Y-3.1875
X1.5125Y-2.4375
X1.675Y-1.6875
X1.7Y-0.9375
X1.8625Y-3.9375
X1.8625Y-2.4375
X1.8875Y0.0
X1.8875Y-3.1875
X2.05Y-0.9375
X2.075Y-1.6875
X2.2375Y0.0
X2.2375Y-3.1875
X2.2625Y-2.4375
X2.2625Y-3.9375
X2.425Y-1.6875
X2.45Y-0.9375
X2.6125Y-2.4375
X2.6375Y0.0
X2.6375Y-3.1875
X2.8Y-0.9375
X2.825Y-1.6875
X2.9875Y0.0
X2.9875Y-3.1875
X3.0125Y-2.4375
X3.175Y-1.6875
X3.2Y-0.9375
X3.3625Y-2.4375
X3.3875Y0.0
X3.3875Y-3.1875
X3.55Y-0.9375
X3.575Y-1.6875
X3.7375Y-3.1875
X3.7625Y-2.4375
X3.925Y0.0
X3.925Y-1.6875
X3.95Y-0.9375
X4.1125Y-2.4375
X4.1375Y-3.1875
X4.3Y-0.9375
X4.325Y0.0
X4.325Y-1.6875
X4.4875Y-3.1875
X4.5125Y-2.4375
X4.675Y0.0
X4.675Y-1.6875
X4.7Y-0.9375
X4.8625Y-2.4375
X4.8875Y-3.1875
X5.05Y-3.9375
X5.05Y-0.9375
X5.075Y0.0
X5.075Y-1.6875
X5.2375Y-3.1875
X5.2625Y-2.4375
X5.425Y0.0
X5.425Y-1.6875
X5.45Y-0.9375
X5.45Y-3.9375
X5.6125Y-2.4375
X5.6375Y-3.1875
X5.8Y-0.9375
X5.825Y0.0
X5.825Y-1.6875
X5.9875Y-3.1875
X6.0125Y-2.4375
X6.175Y0.0
X6.175Y-1.6875
X6.2Y-0.9375
X6.3625Y-2.4375
X6.3875Y-3.1875
X6.55Y-0.9375
X6.575Y0.0
X6.575Y-1.6875
X6.7375Y-3.1875
X6.7625Y-2.4375
X6.925Y-1.6875
X6.95Y-0.9375
X7.1125Y0.0
X7.1125Y-2.4375
X7.1375Y-3.1875
X7.3Y-0.9375
X7.325Y-1.6875
X7.4875Y-3.1875
X7.5125Y0.0
X7.5125Y-2.4375
X7.675Y-1.6875
X7.7Y-0.9375
X7.8625Y0.0
X7.8625Y-2.4375
X7.8875Y-3.1875
X8.05Y-0.9375
X8.075Y-1.6875
X8.2375Y-3.9375
X8.2375Y-3.1875
X8.2625Y0.0
X8.2625Y-2.4375
X8.425Y-1.6875
X8.45Y-0.9375
X8.6125Y0.0
X8.6125Y-2.4375
X8.6375Y-3.1875
X8.6375Y-3.9375
X8.8Y-0.9375
X8.825Y-1.6875
X9.0125Y0.0
X9.0125Y-2.4375
X9.175Y-1.6875
X9.175Y-3.9375
X9.2Y-0.9375
X9.3625Y0.0
X9.575Y-1.6875
X9.575Y-3.9375
X9.6437Y-3.1875
X9.7625Y0.0
X9.8313Y-2.4375
X9.925Y-0.9375
X10.0437Y-3.1875
X10.1125Y-1.6875
X10.1125Y-3.9375
X10.2312Y-2.4375
X10.3Y0.0
X10.325Y-0.9375
X10.5125Y-1.6875
X10.5125Y-3.9375
X10.7Y0.0
X11.2375Y0.0
X11.2375Y-0.9375
X11.2375Y-1.6875
X11.2375Y-3.9375
X11.6375Y0.0
X11.6375Y-0.9375
X11.6375Y-1.6875
X11.6375Y-3.9375
X11.9875Y0.0
X11.9875Y-0.9375
X11.9875Y-1.6875
X11.9875Y-3.1875
X11.9875Y-3.9375
X12.3875Y0.0
X12.3875Y-0.9375
X12.3875Y-1.6875
X12.3875Y-3.1875
X12.3875Y-3.9375
X12.7375Y0.0
X12.7375Y-0.9375
X12.7375Y-1.6875
X12.7375Y-3.9375
X13.1375Y0.0
X13.1375Y-0.9375
X13.1375Y-1.6875
X13.1375Y-3.9375
T2
X0.0Y-2.9125
X0.9375Y-2.9125
X3.0Y-4.2125
X7.5Y-4.2125
X9.375Y-2.9125
X9.5625Y-2.7125
X9.6562Y-0.6625
X10.3125Y-2.9125
X10.5Y-2.7125
X10.5938Y-0.6625
T3
X0.0Y-3.5125
X0.9375Y-3.5125
X3.0Y-3.6125
X7.5Y-3.6125
X9.375Y-3.5125
X9.5625Y-2.1125
X9.6562Y-1.2625
X10.3125Y-3.5125
X10.5Y-2.1125
X10.5938Y-1.2625
M30
